<?xml version="1.0" standalone="no"?>
<!DOCTYPE svg PUBLIC "-//W3C//DTD SVG 20010904//EN"
 "http://www.w3.org/TR/2001/REC-SVG-20010904/DTD/svg10.dtd">
<svg version="1.0" xmlns="http://www.w3.org/2000/svg"
 width="700.000000pt" height="700.000000pt" viewBox="0 0 700.000000 700.000000"
 preserveAspectRatio="xMidYMid meet">
<metadata>
Created by potrace 1.14, written by Peter Selinger 2001-2017
</metadata>
<g transform="translate(0.000000,700.000000) scale(0.100000,-0.100000)"
fill="#000000" stroke="none">
<path d="M335 6100 c20 -23 1087 -1090 1089 -1090 1 0 1 198 1 440 l0 440 -45
14 c-79 26 -450 112 -560 131 -19 3 -42 8 -50 10 -8 2 -28 7 -45 9 -16 3 -95
17 -175 31 -80 14 -165 28 -190 31 l-45 6 20 -22z"/>
<path d="M4035 5844 c-205 -36 -390 -185 -461 -370 -15 -39 -21 -44 -48 -45
-17 0 -165 -1 -328 -1 -164 -1 -298 -2 -298 -4 0 -2 53 -39 118 -83 64 -44
172 -123 239 -177 l121 -97 91 1 c53 1 91 -3 91 -8 0 -21 2 -27 36 -90 85
-156 228 -269 399 -314 79 -20 259 -16 330 8 174 60 303 170 373 317 22 46 45
107 51 134 53 228 -41 476 -233 619 -55 41 -150 88 -206 101 -89 22 -188 25
-275 9z m260 -284 c107 -49 189 -167 198 -285 20 -266 -253 -452 -496 -337
-104 49 -170 132 -193 243 -19 92 -4 166 52 255 89 141 282 196 439 124z"/>
<path d="M1605 5333 l1 -508 137 -137 c76 -76 140 -138 143 -138 2 0 4 269 4
599 l0 599 -139 46 c-76 25 -140 46 -143 46 -2 0 -4 -228 -3 -507z"/>
<path d="M104 5770 c28 -244 123 -665 221 -970 26 -80 54 -169 63 -197 13 -40
22 -53 37 -54 92 -4 945 -3 945 1 0 3 -286 291 -636 640 l-636 635 6 -55z"/>
<path d="M2250 4882 l0 -700 584 -583 c321 -321 595 -595 609 -608 l26 -24 0
870 0 870 -107 106 c-59 57 -125 120 -147 138 -22 19 -42 36 -45 39 -54 54
-361 280 -380 280 -6 0 -10 5 -10 10 0 6 -4 10 -9 10 -5 0 -35 18 -67 39 -58
39 -404 234 -437 247 -16 6 -17 -40 -17 -694z"/>
<path d="M5076 4584 c-71 -17 -190 -74 -231 -110 -16 -14 -37 -31 -46 -38 -34
-24 -106 -125 -139 -193 l-35 -72 -234 0 c-129 0 -236 -3 -238 -5 -2 -2 10
-27 28 -56 18 -29 60 -107 93 -174 l61 -121 130 -2 c184 -2 175 -1 175 -20 0
-26 68 -143 115 -198 106 -126 285 -208 455 -208 189 -1 320 53 450 183 121
121 179 262 178 433 -2 165 -64 306 -190 429 -68 65 -204 138 -290 156 -71 14
-216 13 -282 -4z m300 -284 c71 -34 135 -100 167 -170 17 -36 21 -65 21 -140
0 -83 -3 -101 -26 -145 -133 -253 -483 -262 -624 -16 -61 107 -55 246 17 355
95 143 288 194 445 116z"/>
<path d="M3829 4255 c-1 -6 -2 -379 -3 -829 l-1 -819 249 -249 c137 -136 251
-247 252 -245 2 2 7 28 10 58 3 30 7 56 9 59 2 3 7 46 11 95 16 169 9 576 -11
645 -3 8 -7 37 -9 63 -3 27 -15 95 -27 150 -73 352 -214 689 -412 987 -57 86
-67 98 -68 85z"/>
<path d="M560 4185 c0 -18 122 -257 217 -426 43 -74 140 -227 200 -314 157
-225 432 -544 472 -546 23 -1 1543 -1 1561 0 8 1 -275 291 -630 646 l-645 645
-587 0 c-324 0 -588 -2 -588 -5z"/>
<path d="M574 3660 c11 -59 70 -237 102 -307 193 -430 454 -792 803 -1113 9
-8 37 -31 61 -50 25 -19 47 -37 50 -40 71 -75 411 -284 635 -391 346 -165 820
-313 1170 -364 22 -4 47 -8 55 -10 14 -4 204 -29 300 -39 43 -5 156 -14 259
-21 68 -5 321 -17 436 -20 55 -2 106 -4 113 -4 6 -1 12 -7 12 -14 0 -40 77
-163 145 -232 85 -86 180 -136 310 -164 239 -51 471 35 621 230 83 108 123
231 122 372 -2 118 -18 175 -91 311 -61 114 -237 241 -377 271 -225 49 -446
-16 -600 -177 -51 -54 -106 -139 -125 -195 l-13 -38 -184 1 c-219 1 -436 11
-613 28 -27 3 -81 8 -120 12 -38 3 -77 8 -86 9 -9 2 -40 6 -70 10 -45 5 -140
20 -259 40 -57 10 -268 56 -319 71 -31 8 -81 22 -111 30 -266 73 -634 222
-862 350 -77 43 -280 168 -303 187 -5 4 -35 26 -65 48 -131 94 -278 226 -392
351 -95 102 -117 129 -245 298 -49 63 -91 117 -95 118 -5 2 -8 8 -8 13 0 9
-36 65 -50 79 -14 13 -114 186 -159 275 -29 55 -50 89 -47 75z m4658 -1840
c24 -6 57 -18 74 -25 55 -25 132 -103 161 -163 24 -50 28 -69 28 -147 0 -76
-4 -99 -26 -145 -33 -70 -95 -132 -167 -167 -51 -25 -68 -28 -152 -28 -78 1
-103 5 -142 24 -197 96 -264 332 -145 507 17 26 48 60 68 76 79 64 207 92 301
68z"/>
<path d="M6219 3346 c-2 -2 -22 -6 -44 -9 -187 -27 -380 -178 -456 -359 -17
-42 -29 -58 -44 -58 -11 -1 -265 -2 -565 -3 l-544 -2 3 -50 c6 -81 9 -155 10
-232 l1 -73 559 0 558 0 18 -47 c43 -114 137 -223 251 -292 354 -214 815 -27
920 373 20 74 22 201 5 276 -29 126 -123 271 -229 353 -58 45 -176 99 -243
112 -39 7 -195 16 -200 11z m166 -278 c58 -15 92 -35 145 -84 145 -135 137
-381 -16 -506 -36 -30 -104 -72 -104 -64 0 3 -17 -1 -37 -8 -57 -20 -164 -12
-228 18 -94 43 -172 134 -200 234 -8 27 -8 116 0 157 11 52 55 129 99 171 92
87 211 116 341 82z"/>
<path d="M1861 2536 c97 -83 428 -264 639 -349 186 -74 459 -158 594 -181 16
-3 52 -10 80 -15 28 -6 67 -13 86 -15 19 -3 44 -8 55 -10 12 -2 48 -7 80 -11
33 -4 71 -8 85 -10 97 -14 369 -28 490 -26 34 1 29 7 -275 311 l-310 310 -764
0 c-420 0 -762 -2 -760 -4z"/>
</g>
</svg>
