<svg class="{{ include.class }}" id="b8385900-5d7c-4655-9f68-dff0e498ccad" data-name="Layer 1" xmlns="http://www.w3.org/2000/svg" viewBox="0 0 100 100">
  <circle class="icon-dark" cx="50" cy="50" r="50" />
  <path class="icon-light" d="M47.8,34.67c.05-.38.08-.77.11-1.16-1.53,1.41-3,2.83-4.56,4.25l.79.33C45.37,37,46.58,35.82,47.8,34.67Z" />
  <path class="icon-light" d="M38.22,20.28h0L32,27.78c.14.24.28.48.43.72q3.38-4,6.69-8.11C38.8,20.35,38.52,20.3,38.22,20.28Z" />
  <path class="icon-light" d="M33.68,20.38l-.92,0L30,23.68c.11.27.22.54.34.8,1.22-1.42,2.39-2.77,3.51-4.1Z" />
  <path class="icon-light" d="M47.59,28.94c-1.53,1.46-3.05,2.93-4.54,4.43-.89.9-1.78,1.83-2.73,2.83l.57.34q3.45-3.32,6.87-6.66C47.72,29.57,47.65,29.25,47.59,28.94Z" />
  <path class="icon-light" d="M48.66,57.32c0,.26,0,.51.06.77L64.1,51.6,64,51.51l-.61-.45-2.45,1Q54.78,54.69,48.66,57.32Z" />
  <path class="icon-light" d="M45.8,24.4l-8.52,9.66.62.48q4.17-4.69,8.31-9.42C46.08,24.88,46,24.62,45.8,24.4Z" />
  <path class="icon-light" d="M49.77,48.78l4.59-1.91-1.07-.39L50,47.83C49.92,48.15,49.85,48.47,49.77,48.78Z" />
  <path class="icon-light" d="M60,49.12l-1-.44L48.88,52.86c-.05.29-.09.58-.13.88Q54.38,51.45,60,49.12Z" />
  <path class="icon-light" d="M43.31,21.89c-.22-.14-.42-.3-.65-.42q-4,5-8,10c.17.2.35.38.53.58Q39.25,27,43.31,21.89Z" />
  <path class="icon-light" d="M72,84.38c-1.62.62-3.24,1.26-4.86,1.9-.23.36-.45.72-.67,1.08q3.2-1.22,6.37-2.46Z" />
  <path class="icon-light" d="M70.93,62.13c-.06-.25-.13-.49-.19-.74Q62,64.52,53.21,67.69l.57.61,5-1.82Z" />
  <path class="icon-light" d="M67.28,54.72c-.17-.22-.35-.42-.53-.63q-8.7,3.48-17.38,7c.08.25.15.5.24.74,2-.77,3.93-1.56,5.9-2.35Z" />
  <path class="icon-light" d="M21.73,16.72l2.84-2.36c0-.31-.06-.62-.08-.93-1.27,1-2.51,2-3.76,3.11C21.06,16.61,21.39,16.67,21.73,16.72Z" />
  <path class="icon-light" d="M70,74.22q-2.69,1-5.34,2c.28.17.56.34.85.5l4.06-1.56C69.7,74.87,69.84,74.55,70,74.22Z" />
  <path class="icon-light" d="M71.16,70.27c.06-.33.11-.65.16-1Q66,71.51,60.65,73.79l.8.51,1.76-.74Z" />
  <path class="icon-light" d="M67.32,59.14l2.22-.92c-.12-.24-.23-.47-.36-.7L59.12,61.65l-8,3.28c.14.23.28.46.43.68Z" />
  <path class="icon-light" d="M71.4,65.36q-7.68,2.49-15.34,5c.24.21.5.4.75.6q7.32-2.4,14.62-4.83C71.42,65.89,71.42,65.62,71.4,65.36Z" />
  <path class="icon-light icon-h" d="M65.3,77.83a66.29,66.29,0,0,1-10.75-7.38c-5.86-5.17-8.1-11.54-6.4-19.19.45-2,1-4,1.46-6.07l-2.88-1q-.66,2.58-1.25,5.17c-1,4.34-1.23,8.7.28,13a22.42,22.42,0,0,0,9.31,11.4c3.67,2.4,7.57,4.45,11.45,6.51,4.71,2.51,9.48,4.91,13.25,8.85l.23-.27c-.82-.86-1.61-1.76-2.48-2.58C73.89,82.79,69.59,80.32,65.3,77.83Z" />
  <path class="icon-light icon-h" d="M68.46,82.44l-1.29-.7c-1.31,2.37-2.6,4.75-3.68,7.23A13.61,13.61,0,0,0,62.68,98a17.36,17.36,0,0,1,2.69-10.81C66.34,85.59,67.4,84,68.46,82.44Z" />
  <path class="icon-light icon-h" d="M13.53,15.82a26.91,26.91,0,0,0,10.9,3.57A95.57,95.57,0,0,0,36,19.24c6.63-.41,11,2.71,12.48,9.16a20.24,20.24,0,0,1-.18,9.16c-.14.62-.29,1.24-.43,1.85l2.89,1c.07-.29.14-.58.2-.87,1-4.29,1.36-8.62-.09-12.9-1.59-4.67-4.43-8.12-9.5-9.18a23.15,23.15,0,0,0-8.7.25,31.84,31.84,0,0,1-18.76-2.29C13.8,15.52,13.67,15.67,13.53,15.82Z" />
  <path class="icon-light icon-h" d="M25.33,9a74.41,74.41,0,0,0,.52,8.19c.4,0,.8,0,1.2,0C26.32,13.53,26,9.89,25.59,6.37l-.28.16C25.31,7.32,25.31,8.13,25.33,9Z" />
  <path class="icon-light icon-h" d="M68.83,78.77l1.48.89A27.64,27.64,0,0,0,74.07,72c.3-1.11.54-2.23.81-3.35V63.12c-.21-.84-.41-1.67-.62-2.51-1.93-7.78-6.84-13-14.14-15.92-4.58-1.84-9.31-3.33-14-4.82-9.42-3-15.26-9.33-18.07-18.71-.06-.21-.12-.43-.17-.65-.49,0-1,0-1.45,0,.08.36.15.72.24,1.08,1.48,6.21,4.16,11.74,9.21,15.87,3.52,2.88,7.68,4.51,11.9,6A136.2,136.2,0,0,1,61,48.52,20.13,20.13,0,0,1,72,71.33,27,27,0,0,1,68.83,78.77Z" />
</svg>