<svg class="{{ include.class }}" id="ebba00a7-8bdf-478d-8c94-b42e7fb17218" data-name="Layer 1" xmlns="http://www.w3.org/2000/svg" viewBox="0 0 100 100">
  <circle class="icon-dark" cx="50" cy="50" r="50" />
  <path class="icon-light" d="M84.73,50.18A32,32,0,0,0,59.24,24.43,31.45,31.45,0,0,0,39,27l-.88,1.45A29.61,29.61,0,0,1,52.39,25,29.89,29.89,0,1,1,28.15,36.87c-.16-.23-.31-.47-.47-.71a31.36,31.36,0,0,0-6.62,16.32c-.08.74-.17,1.47-.26,2.21v2.67c.13,1.11.25,2.22.4,3.32A32.06,32.06,0,0,0,45.44,87.3c11.56,2.6,21.77-.21,30.31-8.44A30.9,30.9,0,0,0,85,60.2c.08-.62.18-1.23.27-1.85V53.7C85.09,52.53,85,51.35,84.73,50.18Z" />
  <path class="icon-light" d="M65.89,39.6a.27.27,0,0,1-.22-.1l-.8-.3a4,4,0,0,0-.09-.46c-.07-.28-.13-.3-.4-.18l-.18.08-.09-.32c-.36.18-.39.2-.22.53a6.07,6.07,0,0,0,.55.87.32.32,0,0,0,.24,0c.25,0,.48-.14.57.22,0,.1.16.17.24.25a.5.5,0,0,1,.1.73,1.27,1.27,0,0,0-.06.28l.07,0,.22-.16c.4.16.18.49.2.78a.85.85,0,0,0,.6-.43c.06-.14.22-.24.36-.37l0,.06a.2.2,0,0,1,.12-.08l.1-.11L67,40.26a1.1,1.1,0,0,1-.26,0c-.07,0-.16,0-.19-.05l-.5-.66-.07,0,0,0-.06,0Z" />
  <path class="icon-light" d="M63,29a1.21,1.21,0,0,1-.71-.09.35.35,0,0,1-.17-.06l-.2-.09h.13a.34.34,0,0,1,0-.14h0a1.32,1.32,0,0,1-.71-.19l-.09,0a1,1,0,0,1-.5-.1l0,.08a1.46,1.46,0,0,1,.45.27l.32.08a.37.37,0,0,1,.18.14l1.12.51s.09.06.13.05l.59-.19A.48.48,0,0,0,63,29Z" />
  <path class="icon-light" d="M83.44,52.47A33.65,33.65,0,0,0,83,49l0,.06,0,0,.14.7-.09,0c-.06-.12-.11-.25-.18-.37l-.17-.31a.26.26,0,0,1-.1-.07c-.18-.22-.38-.43-.56-.66a.29.29,0,0,1-.08-.13v-.08s0,0,0-.07a5.64,5.64,0,0,1-.31-.53c-.14-.3-.2-.63-.49-.79H81l-.05,0-.12,0v-.06l-.07-.07,0,0-.11-.15-.06,0a.29.29,0,0,1-.13-.18s0,0,0,0l-1.2-1.49,0-.05c.45.23.9.46,1.34.71a.71.71,0,0,1,.31.56L81,46l0,0,0,.07s0,0,0,0a1.62,1.62,0,0,1,.18.19.35.35,0,0,1,.08.13v.11l.46.7a3.08,3.08,0,0,0,.3.41.93.93,0,0,1,.24.38c.16.2.34.38.5.58a29.36,29.36,0,0,0-4.18-10.32A29.75,29.75,0,0,0,67,27.72,28.73,28.73,0,0,0,58.41,25c-1.16-.19-2.35-.24-3.53-.35l-.35-.05H52.85l-1.35.1a27.44,27.44,0,0,0-6.66,1.28s0,0,0,0a.46.46,0,0,1-.07.14h0a.43.43,0,0,0,0,.05l.1,0a1.27,1.27,0,0,1-.1.12.22.22,0,0,1,0,.11.42.42,0,0,1-.1.2.5.5,0,0,1-.13.12,4.26,4.26,0,0,1,.62,0l-1.63.56c.2.16.35.09.52.06l.13,0a4,4,0,0,0,1.24-.4,1.55,1.55,0,0,1,.74-.2l.23-.18a.58.58,0,0,1,.23-.08c.59-.2,1.17-.4,1.76-.58h0a1.47,1.47,0,0,1,.81-.21l.44.05a.93.93,0,0,0,.34-.05.91.91,0,0,1,.42-.09,3.86,3.86,0,0,1,1.47-.17l2.44-.14a.43.43,0,0,1,.18.06l1,.37s0,0,0,0a1.15,1.15,0,0,1,.57,0l1.25.2V26l-1-.2a1,1,0,0,1,.13.09l.06.06.12,0c-.07.17.18.57.34.52.62-.16,1.15.17,1.72.26a2.91,2.91,0,0,1,.74.23.3.3,0,0,1,.27-.06.85.85,0,0,1,.22.09c.43.05.79.36,1.21,0a.36.36,0,0,0,.26.35l.06,0a.29.29,0,0,1,.29.08l0,0v.07l0,0a.2.2,0,0,1,0,.11,1.74,1.74,0,0,1,.22.05,2.67,2.67,0,0,0,.85,0,.24.24,0,0,1,0-.12.35.35,0,0,1,0-.08l-.13,0a.51.51,0,0,1,.26-.09h0l.05,0h.19l.07,0,.06.05h0l0,.06a.08.08,0,0,1,0,0s0,0,0,0l0,0h0v.07h0s0,0,0,.05a1.62,1.62,0,0,1,.73.24.28.28,0,0,1,.09.1.57.57,0,0,1,.06.17l-2.66-.45a.38.38,0,0,1-.13.09,2.38,2.38,0,0,0,.45.15,2.16,2.16,0,0,1,.67.25l.2.06a.3.3,0,0,1,.18.13.27.27,0,0,1,0,.17l0,.06h-.05a.34.34,0,0,1-.06.12,2.68,2.68,0,0,1,1,.5c.29.24.56.51.84.76a1.87,1.87,0,0,0,.28.16.82.82,0,0,1,.27.22l-.67-.19a.32.32,0,0,1-.1.35l1.2.32c-.28.19-.23.29-.07.42.31.24.6.5.93.78-.59.27-1.08-.17-1.62-.15V32l.38-.19c.13-.06.14-.14.07-.26-.32-.52-.42-.56-1-.39l-.58.16c-.09,0-.16.1-.25.14s-.12,0-.16,0l-.34-.14c0,.28,0,.56,0,.84a1.46,1.46,0,0,0,.06.51,4,4,0,0,0,.2.35,3.66,3.66,0,0,1,.25.68,2,2,0,0,1,.59,1.14,5.57,5.57,0,0,0,.31,1.2,4.49,4.49,0,0,0,.38.71h0l.19.06a.27.27,0,0,1,.21.25.77.77,0,0,0,.18.18,1.33,1.33,0,0,0,.52.17c.16,0,.14-.11.11-.23a3.38,3.38,0,0,1-.11-.73,3.58,3.58,0,0,1,1.81,1.49l.06,0,.15-.47.07.07a.29.29,0,0,1,.08-.07l.07,0h0a.82.82,0,0,1-.18-.33c0-.07-.1-.13-.16-.19l-.47-.41a.52.52,0,0,1-.21-.58c0-.15-.06-.33-.11-.55h0a.27.27,0,0,1-.06-.1.31.31,0,0,1-.31.11.76.76,0,0,1-.29-.13c-.13-.1-.25-.24-.38-.35a1.23,1.23,0,0,1-.46-.73c0-.18-.22-.33-.34-.49s-.1-.07-.15-.11-.33-.25-.18-.4.36,0,.51.05a.78.78,0,0,1,.25.37,3.6,3.6,0,0,0,1.13,1.23,1.18,1.18,0,0,0,.28.12c.09-.17.2-.33.28-.51a1.52,1.52,0,0,0,.06-.2A.25.25,0,0,1,67.7,34v0H68l0,.09,0,.06,0,0v0c.11.19.12.23,0,.34l-.07.08a2.69,2.69,0,0,1-.19.38c0,.13.1.25.3.35l.59.32.07.07-.55.06a2.13,2.13,0,0,0,.38.37,1.22,1.22,0,0,1,.63,1.2c-.47,0-.35.33-.45.61a.6.6,0,0,0-.08-.08h0a.47.47,0,0,1-.06.09v0h0l0,0,.16.15a.86.86,0,0,0-.23-.06,1,1,0,0,0-.44,0c-.54.27-.73.16-.75-.37l-.57-.5c-.16.28-.14.46.15.61.56.3.63.86.8,1.39a.46.46,0,0,0-.21.6,1.3,1.3,0,0,1-.1,1c0,.07,0,.17,0,.26v0a.29.29,0,0,1,0,.27l0,.14-.09,0,0,0a.19.19,0,0,1-.08,0l0,.06-.42.13.35.41a3,3,0,0,0-.48.2c-.09.06-.13.19-.19.29a1.33,1.33,0,0,0,.35.19,4.36,4.36,0,0,0,.62,0l0,.09a2,2,0,0,1,.38.24,4.32,4.32,0,0,1,.35.5.24.24,0,0,1,.06.11.25.25,0,0,1,0,.17l.24.63-1.65.55a.46.46,0,0,0-.21.79,1.46,1.46,0,0,1,.22.43c.09.31.17.61.23.92s0,.43.32.45c0,0,.11.13.14.21a4,4,0,0,1,.14.46,1.85,1.85,0,0,1,.7-.23c.22,0,.42.22.61.34l.08,0c.06-.35.31-.49.62-.58s.37-.35.42-.62a1,1,0,0,1,0-.25,1,1,0,0,1,.1-.35l0,0a1.11,1.11,0,0,0-.07-.16.71.71,0,0,0-.12-.18,1,1,0,0,1-.14-1A1,1,0,0,0,69.91,44c.23-.12.42-.21.59-.32a.56.56,0,0,0,.21-.25,5.09,5.09,0,0,0,.14-.56.3.3,0,0,1,.49-.17,1.49,1.49,0,0,1,.2.15,2.12,2.12,0,0,0,1.39.48,1,1,0,0,1,.2.07h.16a.31.31,0,0,1,.16.06c.46.09.49.58.79.83a1.12,1.12,0,0,0-.58-1.17l.07-.06h.38l0-.08a.84.84,0,0,0-.2-.08c-.34-.07-.67-.13-1-.21a.34.34,0,0,1-.18-.11,1.18,1.18,0,0,1-.36-.12,2.67,2.67,0,0,1-.48-.15.27.27,0,0,1-.22-.12.78.78,0,0,1-.22-.25l.42-.33.09.11a1.06,1.06,0,0,1,.25,0,1.17,1.17,0,0,1,.26.1l1.11.23a.4.4,0,0,1,.22.17A3,3,0,0,0,75,43.1c.06,0,.15,0,.24,0,0,.49.44.41.68.67,0-.48-.1-.6-.6-.77l.33-.14c-.05-.25-.06-.26-.51-.23.16-.33,0-.57-.18-.82s-.13-.46.24-.51l.23,0a.31.31,0,0,0,.07.42c.3.33.48.78,1,.89a.79.79,0,0,1,.08-.16c.11-.12.23-.16.33-.06h0a.23.23,0,0,1,.14,0v-.05l.53-1a5.65,5.65,0,0,1,.38.58c.24.5.46,1,.68,1.51a.49.49,0,0,1,0,.31c-.07.14-.15.27-.23.4a.43.43,0,0,1,0,.23.3.3,0,0,1-.09.1c.12.21,0,.39-.17.54a2,2,0,0,1-1.07.4c-.39,0-.59.49-.41,1a2.85,2.85,0,0,0,.25.45c.13.2.08.35-.15.4a1.62,1.62,0,0,1-.71.11,1,1,0,0,1-.53-.39l-.11,0,.07.12c-.3.11-.54.2-.8.27a1.35,1.35,0,0,1-.45,0,.25.25,0,0,1-.26-.3,1.4,1.4,0,0,0,0-.41c0-.11,0-.25-.13-.3a.67.67,0,0,1-.34-.59c-.35-.06-.48.21-.67.41a6,6,0,0,1-.56.37c-.48.38-1,.78-1.44,1.19h0a.35.35,0,0,1-.11.1l0,.08s0,.12,0,.18a1.23,1.23,0,0,1-1.3.77c-.2,0-.3,0-.33.23a2.37,2.37,0,0,0,0,.46,1.18,1.18,0,0,1-.29.82,1.11,1.11,0,0,0-.22.55c0,.33,0,.67,0,1,0,0,0,0,0,.05a.51.51,0,0,1,.08.47s0,0,0,0l0,.07a.08.08,0,0,0,0,0l0,0a2.38,2.38,0,0,1-.3.49l-.12.16-.41.61a3.9,3.9,0,0,0-.31.8,2,2,0,0,1,0,.84A14,14,0,0,0,66.9,57l0,.46a.47.47,0,0,0,.06.15,7.83,7.83,0,0,1,.45.92.48.48,0,0,1,0,.24c0,.31,0,.62,0,.92a.88.88,0,0,1-.12.55h0a.25.25,0,0,1,0,.07l0,.22v.15a.47.47,0,0,1,0,.17.53.53,0,0,1,.2.58.24.24,0,0,0,.19.33l.2.1a.89.89,0,0,1,.46.39.54.54,0,0,1,.34.24,1.8,1.8,0,0,1,.39.27c.14.11.2.31.31.46a.71.71,0,0,0,.25.24,4.63,4.63,0,0,1,1.3.64c.17.15.5.1.76.15a.63.63,0,0,0,.64-.29,1.81,1.81,0,0,1,.41-.23c.23-.14.46-.28.68-.43a.51.51,0,0,1,.5-.14.31.31,0,0,0,.23-.08c.15-.14.28-.3.45-.48l0,.2a.05.05,0,0,1,0,0,1.49,1.49,0,0,1,.17-.43,3.51,3.51,0,0,1,1.24-1,.3.3,0,0,1,.26,0c.2.14.38.3.61.49a2.75,2.75,0,0,0,.37-.39.45.45,0,0,1,.51-.22c.06,0,.16.1.16.15,0,.5,0,1,0,1.49a.15.15,0,0,1,0,.07v0a2.48,2.48,0,0,1,0,.27h0l0,.22c0,.05,0,.1-.05.15a.9.9,0,0,0,.22.42c.21.25.41.51.6.77a.6.6,0,0,1,.07.27c0,.3,0,.61,0,.91a2.32,2.32,0,0,0,0,1.08,5,5,0,0,0-.51,1.47c0,.09-.12.17-.21.24a3.11,3.11,0,0,1-.45,1c0,.12-.07.23-.09.34s0,.41,0,.61a3.08,3.08,0,0,1-.08.53,1,1,0,0,1,0,.35l-.06.21a.29.29,0,0,1,0,.09,4.6,4.6,0,0,1-.62,1.28c-.17.26-.32.53-.47.8A29.45,29.45,0,0,0,83.3,57.89,29.74,29.74,0,0,0,83.44,52.47ZM80.09,40.69c.17.47.34,1,.5,1.43l-.06,0a6.33,6.33,0,0,0-.62-.75,1.44,1.44,0,0,1-.44-.85C79.71,40.51,79.81,40.87,80.09,40.69Zm-4.58.07c0,.16-.05.32-.08.48l-.15-.69C75.48,40.49,75.54,40.58,75.51,40.76Zm0-1.69V40a.61.61,0,0,0,.05.12.31.31,0,0,1-.21.37h0v0c-.64-.12-.76-.72-1.07-1.15a.74.74,0,0,1-.08-.38h0a1,1,0,0,1,0-.17l0,0a.24.24,0,0,1-.12-.14c-.18-.17-.4-.31-.34-.64l.44,0,.11.2a.39.39,0,0,1,.21,0l.13.08.06,0,0-.42c-.38,0-.6-.26-.65-.72,0-.2,0-.4,0-.68a3.47,3.47,0,0,1,.68,1.32.26.26,0,0,1,.31-.21,3.54,3.54,0,0,0,.46,0,.53.53,0,0,1,.66.57,3.13,3.13,0,0,0,0,.43C76.06,39,75.93,39.16,75.49,39.07Z" />
  <path class="icon-light" d="M60.33,36.56a.25.25,0,0,0-.17-.36.87.87,0,0,1-.38-.33h0l0,0c-.35.18-.62.34-.9.47a.4.4,0,0,1-.32,0c-.35-.24-.4-.11-.47.23a.37.37,0,0,0,0,.11l.66.34c-.07.3.12.34.34.28a2.86,2.86,0,0,0,.58-.21c.2-.09.38-.21.6-.33l0,.1a.24.24,0,0,1,.06-.08A.46.46,0,0,1,60.33,36.56Z" />
  <path class="icon-light" d="M51.21,32.77a.74.74,0,0,1,.79.43h-.06a.37.37,0,0,1,.05.11h0c.11.33.31.64.18,1s-.11.43.3.45h.13l.09.37c.11.46.11.46-.3.7A1.07,1.07,0,0,0,52,36.88a4.54,4.54,0,0,0,.11.66,3.63,3.63,0,0,0,.8,1.45,3,3,0,0,0,.49.32h0a7,7,0,0,0,.92-.1.67.67,0,0,0,0-.68.43.43,0,0,1,.1-.31c.19-.26.41-.49.62-.74,0,0,0-.08.07-.11l1.21-1.08a.6.6,0,0,1,.24-.28.43.43,0,0,1,.17-.06.21.21,0,0,1,0-.06c.27-.31.52-.64.78-1l-.06-.08a2.15,2.15,0,0,0-.36.11c-.39.14-.45.11-.55-.28,0-.09,0-.17-.08-.29l1.06.31c-.08-.37-.1-.37-.38-.51s-.3-.2-.5-.33l.54-.28-.07-.17a.48.48,0,0,1-.1-.17A.36.36,0,0,1,57,33a.33.33,0,0,1,0-.21l-.11-.06c-.11-.06-.2-.15-.31-.21a.74.74,0,0,1-.43-.68A8,8,0,0,0,56,30.67a4.55,4.55,0,0,0-.71.26.54.54,0,0,1-.65,0l.46-.21c-.56-.33-.58-.33-1.46,0v.54A1.63,1.63,0,0,1,53.3,31a.59.59,0,0,0-.69,0,8.48,8.48,0,0,0-.77.36l.2.1a1.1,1.1,0,0,1-.86.39c-.36,0-.44.12-.43.51A.42.42,0,0,0,51.21,32.77Z" />
  <path class="icon-light" d="M58.87,71.89c-.09-.38-.29-.51-.71-.48a1,1,0,0,1-.49-.09c-.32-.16-.62-.37-.93-.55a1,1,0,0,0-.32-.14c-.56-.07-1.13-.09-1.68-.2a6.11,6.11,0,0,1-1-.37v0l-.08,0h-.06L53,69.81c-.13,0-.25-.1-.39-.13a.73.73,0,0,0-.88.33.43.43,0,0,1-.61.25,1.64,1.64,0,0,1-.24-.19c.64-.1.76-.15,1-.48h0a.52.52,0,0,1-.27-.17l-.1,0v0h0l0,0a.29.29,0,0,1-.05-.13h-.75c.2-.23.32-.4.47-.55s.11-.19,0-.31a1.29,1.29,0,0,1-.31-.46.89.89,0,0,0-.41-.48c-.27-.16-.5-.38-.78-.52a3.9,3.9,0,0,0-1-.44,5.71,5.71,0,0,0-1.1-.06.62.62,0,0,1-.52-.44,1.82,1.82,0,0,0-.31-.47,1.75,1.75,0,0,0-.32-.29,1.36,1.36,0,0,0-.44-.24c-.37-.11-.38-.11-.29-.51a4.74,4.74,0,0,0-.85-.58,5.05,5.05,0,0,0-1-.14.49.49,0,0,1-.25-.07,2.68,2.68,0,0,0-1.13-.39,2.64,2.64,0,0,1-.7-.44c-.12-.08-.23-.18-.41-.33A.46.46,0,0,1,41,63c-.12,0-.3,0-.37,0s-.09-.26-.06-.36a7.75,7.75,0,0,1,.35-.78,6.27,6.27,0,0,0-.89.33,1.23,1.23,0,0,1-.94.13l0-.28-.24.35s0,.07,0,.09c.1.32-.17.45-.35.52a.63.63,0,0,1-.71-.11,1.45,1.45,0,0,1-.29-.32.39.39,0,0,0-.49-.25c-.1,0-.21,0-.3,0-.35.1-.54-.09-.7-.36s-.26-.39-.39-.59c-.23-.37,0-.75,0-1.12a9.3,9.3,0,0,1,.26-1,.05.05,0,0,1,0,0l0,0a.69.69,0,0,1-.09-.25.52.52,0,0,1-.25-.32.35.35,0,0,0-.2-.21c-.28-.12-.58-.21-.87-.33s-.37-.17-.49-.22l.35-1.18.19.15s.05-.05.05-.08a1.65,1.65,0,0,1,.52-1.07c.17-.16-.06-.56-.34-.61a4,4,0,0,1-.48-.08s-.07-.11-.11-.17a2.67,2.67,0,0,0-.55.93c-.13.28-.28.29-.49.08a.41.41,0,0,0-.27-.08c-.54,0-.65-.07-.84-.57-.11-.28-.28-.55-.14-.88,0-.08,0-.21,0-.32a1.61,1.61,0,0,1,.09-1,.7.7,0,0,1,.08-.23l0,0a.22.22,0,0,1-.07-.1c.07-.25.09-.57.26-.73a2.29,2.29,0,0,0,.6-1.19c.05-.26.14-.39.45-.34a1.16,1.16,0,0,0,.61-.1.44.44,0,0,1,.37,0c.13.05.27.06.4.1a.44.44,0,0,1,.2.13c.12.17.23.35.34.53l.13-.12v.26l.23-.33L36,51l.13-.07h0v0c.16,0,.35-.1.48-.05s.17.24.3.44h0a.61.61,0,0,1,0,.13l.56.25a.61.61,0,0,1,.23.69,1.81,1.81,0,0,0-.07,1c0,.25,0,.5,0,.75s0,.38.2.42.3-.13.4-.32a3.26,3.26,0,0,0,.17-1.45V52h0a.49.49,0,0,1,0-.12h0c.08-.18.14-.33.21-.48a1.5,1.5,0,0,1,1.24-.82,2.76,2.76,0,0,0,1.38-.65.67.67,0,0,0,.08-.9.63.63,0,0,0,0-.74l.17.1c.14-.14,0-.46.31-.46q-.15.43-.27.87s0,.05.09.08l0,0,.11-.08.08,0,.08-.1,0,0v0h0l.08-.05s0-.11.07-.17a3.21,3.21,0,0,1,.39-.52,1.14,1.14,0,0,0,.15-.17c.05-.1.05-.27.11-.3a2,2,0,0,1,.62-.16,7.63,7.63,0,0,1,.95,0L44.12,47a4.48,4.48,0,0,1,.26-.49.37.37,0,0,1,.19-.16c.26-.07.53-.1.79-.17a2.62,2.62,0,0,0,.39-.15.24.24,0,0,1,.06-.09l.12-.1.07,0a.42.42,0,0,1,.14-.06l.08,0h.16l.07,0a.29.29,0,0,1,.11.11v0l.36.07,0,.1L46.59,46s0,0,0,.06a.2.2,0,0,1,0,.11.2.2,0,0,1-.08.08.21.21,0,0,1-.1.06h-.05l-.09,0h0l-.07,0a1.28,1.28,0,0,0,0,.43l.08,0a3.27,3.27,0,0,0,.3-.35.58.58,0,0,1,.55-.28c.27,0,.53.06.8.1a.42.42,0,0,1,.11-.17.65.65,0,0,0-.15-.1,4.84,4.84,0,0,0-.72-.36.58.58,0,0,1-.37-.74c.12-.26.05-.36-.19-.42l-.15-.09a1.58,1.58,0,0,1,.45,0c.2,0,.23-.09.24-.24S47.05,44,46.9,44l-.42.09a5.94,5.94,0,0,1-.86.12c.28-.38.92-.2,1-.72h.77a.85.85,0,0,1,.16,0c.35.09.7.17,1,.27,0,0,.08.12.11.18l.2-.2a1.79,1.79,0,0,0,.44-.3.44.44,0,0,1,.57-.15c.17.08.27,0,.34-.15.2-.44.17-.74-.1-1a.5.5,0,0,0-.6,0c-.13.07-.27.12-.42.19,0-.29.28-.45.82-.49l-.62-.71L48.91,41l.09,0c0-.21,0-.42-.06-.63a1.65,1.65,0,0,1,0-.36l-.18-.11.2-.55a.53.53,0,0,1,0-.22L48.66,39a.57.57,0,0,1-.08.13h0a1.17,1.17,0,0,1-1.46.26l.49-.36a.64.64,0,0,1,0-.6.76.76,0,0,0-.16-.06.38.38,0,0,1-.33-.43c0-.24,0-.36-.25-.33a.6.6,0,0,1-.56.39h-.14c.13,0,0,0,0,0h0l-.08,0s-.12.1,0,0l-.06.06,0,.06a.58.58,0,0,1-.27.36c-.13.19-.39.12-.57.23.37.4.09.83,0,1.24,0,.05-.09.09-.14.11-.34.15-.69.28-1,.45a.46.46,0,0,0-.22.29,7.16,7.16,0,0,0,0,.84l-.23.19a.29.29,0,0,1-.49-.1A1.09,1.09,0,0,1,43,41c0-.09,0-.23.06-.34s.18-.39.28-.63c-.09-.06-.25-.14-.39-.25a1.06,1.06,0,0,1-.28-.32,6.44,6.44,0,0,1-.3-.72.33.33,0,0,1,0-.24s-.05,0-.07-.06v0l-.51-.17c.07-.1.15-.2.22-.31s.18-.22.12-.43.14-.32.23-.51l.07,0a.64.64,0,0,1,.18-.1c.15-.3.31-.56.71-.52a.65.65,0,0,0,.22-.08l.39-.2a.67.67,0,0,1,.48-.23.52.52,0,0,1,.18,0,.16.16,0,0,1,.12,0c.26.12.34,0,.4-.24a.65.65,0,0,1,1.12-.27.29.29,0,0,0,.43.05l.48-.35a.67.67,0,0,0,0-1,.64.64,0,0,1-.64.14.3.3,0,0,1-.11.06h-.08a.29.29,0,0,1-.21-.09A.3.3,0,0,1,46,34a.14.14,0,0,1,0-.11.21.21,0,0,1,.06-.1l.21-.19.22-.16A.63.63,0,0,0,46.6,33l.87-.32a.3.3,0,0,1,.05-.34c-.14-.11-.25-.09-.38.07s-.36.39-.54.58a1.24,1.24,0,0,0-.33.09,5.18,5.18,0,0,0-.49.35l.09.38-1,.57a.64.64,0,0,0-.59-.73c-.19,0-.19-.2-.14-.34a.53.53,0,0,1,.58-.22l.21.07h.17a4.32,4.32,0,0,1,.32-.69c.07-.12.24-.18.37-.26l.78-.45s0,0,0,0v-.08s0,0,0,0a.37.37,0,0,1-.32-.08l-.06.29c-.25-.14-.35-.51-.74-.38a.67.67,0,0,1-.31,0,.79.79,0,0,0-.43,0l0,.05a2.43,2.43,0,0,1-.32.24l-.07.07h0s0,0,0,0v0a.38.38,0,0,1,0,.1l0,.06A.36.36,0,0,1,44,32l-.37.52.94.27c-.1,0-.18.14-.22.13-.39-.16-.9.08-1.19-.37,0,0,0-.08,0-.08.37,0,.42-.29.43-.61a.31.31,0,0,1,.07-.16h0a1,1,0,0,1,.06-.25l0,0c0-.22.08-.4.11-.59a.25.25,0,0,0,0-.09,2.21,2.21,0,0,1-.37,0,.55.55,0,0,1-.38-.35L43,30.37l.1,0a.8.8,0,0,1,0-.15.63.63,0,0,1,.44-.58h0c.15-.19.3-.38.46-.56h0a.56.56,0,0,1,.26-.34l0,0c.14-.07.28-.13.41-.21s.26-.1.26-.16a.43.43,0,0,0-.13-.35.55.55,0,0,0-.43-.08c-.37.11-.72.27-1.08.41a.85.85,0,0,1-.2,0,1.59,1.59,0,0,1,.57-.48.25.25,0,0,1,0-.15,3.69,3.69,0,0,0-.82.13.57.57,0,0,1-.2.21.69.69,0,0,1-.55.44c-.11,0-.23-.11-.34-.16v0a1.69,1.69,0,0,1-.55-.06H41l0,0h0l-.25.07-.08.06a1.82,1.82,0,0,1-.28.11,2.62,2.62,0,0,0-.34.24l0,0a5.44,5.44,0,0,1-.37.56.56.56,0,0,1-.6.26,1.91,1.91,0,0,0-.66.09v.11c.17.08.34.16.51.26a.27.27,0,0,1,.13.18s0,.07-.08.11a.72.72,0,0,1,.12.23c.08-.09.23-.11.55-.13l-.57.47a.52.52,0,0,1-.25.28h0l-.13.46s-.08.09-.12.13a1.36,1.36,0,0,1-.13.64l.1,0-.13.09a1.74,1.74,0,0,1-.15.26,4,4,0,0,1-1.56,1.42c-.45.41-.9.81-1.34,1.23a.86.86,0,0,0-.23.43,1.94,1.94,0,0,1-.57,1.2,1.37,1.37,0,0,0-.19.22,2.44,2.44,0,0,1-.75,1,10.63,10.63,0,0,1-1.13.76,3.31,3.31,0,0,0-.5.41,2.62,2.62,0,0,0-.28.3,4.37,4.37,0,0,0-.89,1.4c-.11.41-.41.67-.53,1a4.75,4.75,0,0,1-.25.56.47.47,0,0,1,.06.46L30,43.3a.61.61,0,0,1,0,.3c-.19.73-.4,1.45-.61,2.18h-.09l0,0a.36.36,0,0,1,0,.1v0a.45.45,0,0,1,0,.23c0,.21,0,.42,0,.63a.33.33,0,0,1-.15.21c-.15.08-.2.16-.14.32a1.55,1.55,0,0,1,0,1.06,1.66,1.66,0,0,0-.12,1.1,1,1,0,0,1,0,.42.65.65,0,0,1,.05.41s0,0,0,0l.05,0a1.06,1.06,0,0,1,.15-.15h0a2.38,2.38,0,0,0,0-.36,3.24,3.24,0,0,1,.13-1.38,5.11,5.11,0,0,0,.19-1.17c.05-.33.1-.66.16-1,.06,0,.08-.25.17-.4a6.22,6.22,0,0,0,.29-.7,1.4,1.4,0,0,1-.14,1.27c-.08-.06-.07.26-.09.44-.06.43,0,.86-.05,1.29a2.94,2.94,0,0,1-.15,1.05,2.21,2.21,0,0,0,0,.88,4.73,4.73,0,0,1,0,.76.3.3,0,0,1,.05.15s0,.09,0,.14a.45.45,0,0,1,0,.4c-.13.38-.24.76-.36,1.15a1.16,1.16,0,0,1,.08.32l.16.42a4.19,4.19,0,0,0,.34.85,11.84,11.84,0,0,0,1.36,2.13.5.5,0,0,0,.22.13c.12,0,.29,0,.37,0a1,1,0,0,1,.48.74h0a.61.61,0,0,1,0,.19,4.46,4.46,0,0,1,.59.7,6.85,6.85,0,0,0,.81.89c.06.06.19,0,.31.06.19.47.39,1,.58,1.46a1,1,0,0,1,0,.3c0,.28,0,.28.2.47l.1-.17c.07.11.14.19.19.28s.23.46.36.69a.51.51,0,0,0,.2.21,1.68,1.68,0,0,1,.74.68.64.64,0,0,0,.22.14,2.66,2.66,0,0,0,0-.28.38.38,0,0,0,0-.1c.39-.28.58-.27.86.08a.85.85,0,0,1,0,.25.66.66,0,0,0,.05.28,1.63,1.63,0,0,1,.14,1.28c-.09.31-.05.6.34.72-.17.19-.26.46-.59.29,0,0-.22.1-.25.18-.1.26-.3.32-.52.44a.83.83,0,0,1-.28.09.82.82,0,0,1-.09.19h0a6.93,6.93,0,0,0-.07.76.51.51,0,0,0,.1.29q.32.44-.18.63c-.06,0-.15.13-.14.17.1.28.08.59.34.83a6.08,6.08,0,0,1,.77.91,3.83,3.83,0,0,1,.27.58,2.59,2.59,0,0,0,.14.29,1.76,1.76,0,0,1,.42.84c0,.11.13.21.2.31a6,6,0,0,0,.34.61c.1.16.22.32.34.48l.25.12a.53.53,0,0,1,.24.25l.94.67.56.41a3.16,3.16,0,0,1,.44.38,2.45,2.45,0,0,1,.61,1.21,2.15,2.15,0,0,1,0,.44.49.49,0,0,1,0,.24s0,.07,0,.11c0,.3.09.61.12.92a.06.06,0,0,0,0,0c0,.11.07.21.11.32a2.79,2.79,0,0,1,.13.7.36.36,0,0,0,0,.09,1,1,0,0,1,0,1.21c.2.3.36.56.54.8a.48.48,0,0,0,.31.19c.25,0,.39.15.44.46h0a.78.78,0,0,1,.1.15,1.68,1.68,0,0,1,.83.64h0a1.54,1.54,0,0,1,.19.17c.46.15.94.29,1.41.42l0,0,.25-.15a.54.54,0,0,1-.08-.36.58.58,0,0,1,.08-.22h-.07l0-.1.61-.24-.12-.38a2.51,2.51,0,0,0,.31,0,.63.63,0,0,1,.49.11l.12-.06a.57.57,0,0,1,.42,0c.26,0,.51.07.71-.19L48,80.91l0,0c.36.11.73.21,1.09.33a.73.73,0,0,0,.69,0c.51-.31,1-.6,1.56-.89a.38.38,0,0,1,.1,0s0,0,0,0l0,0a.69.69,0,0,1,.13-.11l.08,0a1.47,1.47,0,0,0,.26-.2.28.28,0,0,0,.1-.22c-.08-.51-.1-.54.32-.75s.84-.34,1.28-.52v0a1.49,1.49,0,0,1,.55-.1l.41,0a.54.54,0,0,0,.18,0l.07,0a2.29,2.29,0,0,0,.29-.18s.05-.07.08-.08c.41-.15.55-.54.77-.85a2.67,2.67,0,0,0,.36-.54,9.62,9.62,0,0,0,.32-1,.64.64,0,0,1,0-.41s0,0,0-.05a.13.13,0,0,1,0-.06.84.84,0,0,1,.33-.5,3,3,0,0,0,.38-.41,5.41,5.41,0,0,1,.72-.64A1.7,1.7,0,0,0,58.87,71.89ZM50.62,69.8l-.17-.49.46,0-.2.54Z" />
  <path class="icon-light" d="M49,34a.27.27,0,0,1,0-.16c-.24-.19-.54-.36-.25-.7-.31-.36-.72-.09-1.12-.23l0,0-.11-.05-.71.65a.26.26,0,0,1,.14.11.19.19,0,0,1,0,.12.17.17,0,0,1,0,.12s0,.05,0,.08,0,0,0,.06c.05.23.24.14.38.18l.72.2a.39.39,0,0,1,.2.35h0a.35.35,0,0,1,.08.22.91.91,0,0,1,0,.4c0,.14.06.28.08.42a.2.2,0,0,1-.08.17A1.51,1.51,0,0,1,48,36l-.12.05-.07.06c0,.05,0,.12,0,.23h-.44l0-.05a.3.3,0,0,1-.26-.07l-.12,0-.31.26.1.14h0a.21.21,0,0,1,.11,0,.18.18,0,0,1,.09.08.23.23,0,0,1,0,.1v0a.78.78,0,0,1,.53.41,2.85,2.85,0,0,0,.54.61c.06.06.14.09.2.15s.22.26.38.14a1.54,1.54,0,0,0,.36-.4c0-.07,0-.18.07-.25s.14-.38-.13-.49a.18.18,0,0,1-.08-.15c0-.17,0-.35.06-.54.24-.11.3.09.38.24s.15.31.22.46a5.86,5.86,0,0,0,.61-.4s0-.24,0-.26c-.45-.22-.38-.64-.4-1a1.82,1.82,0,0,0-.57-1.29A.31.31,0,0,1,49,34Z" />
  <path class="icon-light" d="M36.33,55.47a1.28,1.28,0,0,1,.35.07c.19.08.35.19.53.28a1,1,0,0,1,.49.34c.09.15.33.2.49.31s.2.1.21.15a.73.73,0,0,0,.51.63l-.39.3,0,.06h1.17l-.06.29.31-.26-.14-.36c-.07,0-.16,0-.19,0l-1.7-1.63h0a.51.51,0,0,1-.25-.25l-1-.37-.1,0-.12,0h0l-.44.28,0,.05A1.31,1.31,0,0,1,36.33,55.47Z" />
  <path class="icon-light" d="M52.5,30.78c-.19.11-.38.23-.58.33-.52.27-1.05.52-1.56.81a.33.33,0,0,1-.49-.11,1.4,1.4,0,0,1-.13.18c-.08.09-.18.27-.24.26a1.78,1.78,0,0,1-.45-.24c.06-.06.09-.16.16-.19.33-.13.66-.23,1-.36.07,0,.16-.19.13-.24s0-.28.09-.42c.14-.31.29-.53.69-.4.1,0,.25-.06.37,0a2.17,2.17,0,0,1,.5.13A4.69,4.69,0,0,1,52.5,30.78Z" />
  <path class="icon-light" d="M50.41,30.53l-.27.68-.85.15A1.06,1.06,0,0,1,50.41,30.53Z" />
  <path class="icon-light" d="M59.66,30.88c-.31.13-.39.11-.45-.13-.32,0-.72.13-.94-.3C58.77,30.18,59.21,30.32,59.66,30.88Z" />
  <path class="icon-light" d="M58.84,30.1l-.64.11-.05-.09c.11-.09.22-.24.35-.26s.25.1.38.16Z" />
  <path class="icon-light" d="M46.69,30.35c.05-.27.42-.28.81,0Z" />
  <path class="icon-light" d="M48.67,31l-.16-.34.38-.16C49,30.82,49,30.82,48.67,31Z" />
  <path class="icon-light" d="M56.64,26.56l.62.35c-.38.23-.43-.21-.66-.27Z" />
  <path class="icon-light" d="M40,58.6l.73.18L40.33,58a9.92,9.92,0,0,1,1.56.47c.26.12.41.46.64.73-.33,0-.59,0-.85.06s-.61.16-.88-.18c-.1-.12-.4-.07-.59-.14a1.18,1.18,0,0,1-.31-.24Z" />
  <path class="icon-light" d="M43.67,59.55c-.18.24-.38.08-.56.08s-.06-.13-.08-.19l0-.06Z" />
  <path class="icon-light" d="M50.63,45.82c-.39-.18-.79-.39-1.21-.57a4.89,4.89,0,0,0-.61-.17.47.47,0,0,1,.31-.5.56.56,0,0,0,.31-.33c.06-.47.37-.65.78-.8l-.32.7.54.1c.4.1.49.46.61.78a.42.42,0,0,1-.07.29A5,5,0,0,1,50.63,45.82Z" />
  <path class="icon-light" d="M64,40.08l.19,0c.1,0,.23-.15.3-.12s.27.1.28.33a1.62,1.62,0,0,0,.27.66c.12.21.18.35-.1.48s-.26.24-.41.35a.24.24,0,0,1-.23,0,.33.33,0,0,1-.07-.24,2.18,2.18,0,0,1,.07-.38,4.56,4.56,0,0,1-.39-.25.23.23,0,0,1,0-.16c.33-.14.18-.35.11-.56A.17.17,0,0,1,64,40.08Z" />
  <path class="icon-light" d="M38.17,58.13c.33.09.65.1.75.45C38.53,58.71,38.43,58.35,38.17,58.13Z" />
  <path class="icon-light" d="M72.44,45.14c-.24-.29-.46-.53-.65-.8-.06-.09,0-.25,0-.45.28.33.53.6.74.9C72.57,44.86,72.46,45,72.44,45.14Z" />
  <path class="icon-light" d="M71.47,43.26l.29.51C71.51,43.7,71.34,43.58,71.47,43.26Z" />
  <path class="icon-light" d="M47.87,45.44c-.24.23-.44.26-.62.12s-.16-.33,0-.5C47.46,45.14,47.37,45.71,47.87,45.44Z" />
  <path class="icon-light" d="M45,33.54l.56-.21-.07.49C45.19,33.93,45.08,33.74,45,33.54Z" />
  <path class="icon-light icon-h" d="M40.43,20.17c0-5.79-4.4-10.49-9.82-10.49s-9.83,4.7-9.83,10.49a11,11,0,0,0,1,4.56c2,4.54,5.15,8.45,7.64,12.71a1.36,1.36,0,0,0,2.36,0c2.39-3.87,4.61-7.86,7.08-11.67A10.41,10.41,0,0,0,40.43,20.17Zm-9.82-4.36a4.22,4.22,0,0,1,4.07,4.36,4.08,4.08,0,1,1-8.15,0A4.22,4.22,0,0,1,30.61,15.81Z" />
</svg>