<svg class="{{ include.class }}" id="b5d00c7c-132c-475d-85d4-25b947f7cd20" data-name="Layer 1" xmlns="http://www.w3.org/2000/svg" viewBox="0 0 100 100">
  <circle class="icon-dark" cx="50" cy="50" r="50" />
  <path class="icon-light icon-h" d="M38.8,39.27c0,7.45,5.55,13.48,12.4,13.48s12.39-6,12.39-13.48-13.71-14-12.39-23.78C51.22,15.36,38.8,31.82,38.8,39.27Zm18.75-5.63a.47.47,0,0,1,.57-.25,1.23,1.23,0,0,1,.56.37,6.77,6.77,0,0,1,1.78,6c-.3,1.55-1.35,1.91-1.62.92a2.75,2.75,0,0,1,0-1.06,8.24,8.24,0,0,0-1.1-5.31A.76.76,0,0,1,57.55,33.64Z" />
  <path class="icon-light" d="M86.83,79.82a28.35,28.35,0,0,1-14.76,3.1,53.74,53.74,0,0,1-9.79-1.35C59,80.83,55.8,80,52.63,78.94c-3.66-1.16-7.27-2.49-11-3.59A93.66,93.66,0,0,0,27.24,72a41.31,41.31,0,0,0-13.14.44,25,25,0,0,0-6.45,2.17A48.95,48.95,0,0,0,82.36,86.77a37.37,37.37,0,0,1-8.75.93,44.27,44.27,0,0,1-19.06-4.19c-1.3-.64-2.58-1.4-3.85-2.13A17,17,0,0,1,48.41,80s.05,0,.1,0c6.84,2.51,13.43,5.45,20.47,5.78a39.24,39.24,0,0,0,15-2c.84-.29,1.67-.61,2.48-1a48.33,48.33,0,0,0,4.07-5.16A38.53,38.53,0,0,1,86.83,79.82Z" />
  <path class="icon-light" d="M97,56.74c-8,8.7-17.86,12-29.52,10.35a118.19,118.19,0,0,1-18-4.41C41.47,60.2,33.47,57.49,25,56.87c-6.9-.5-13.5.5-19.57,4.06L2.65,62.57c.06.23.13.45.19.68a29.71,29.71,0,0,1,14-4.94c7-.6,13.55,1,20.07,3.22,4.58,1.53,9,3.38,13.54,5.15,6.49,2.56,13,5.11,19.94,6.15,8.18,1.21,15.66-.28,22.18-5.24a27.93,27.93,0,0,1-9.06,5.17,26.69,26.69,0,0,1-11.36,1.37,61.87,61.87,0,0,1-10.42-1.86c-3-.82-5.85-1.86-8.76-2.88-3.49-1.22-7-2.39-10.48-3.7A63.83,63.83,0,0,0,25.66,61.6,29.67,29.67,0,0,0,6.61,66c-.79.5-1.55,1-2.31,1.61.22.55.43,1.11.67,1.65a27.59,27.59,0,0,1,13.22-5,36,36,0,0,1,14.67,1.74c7.55,2.23,14.69,5.77,21.94,9,2.45,1.08,5,1.89,7.5,2.81a49.31,49.31,0,0,0,7.53,2.1,31.68,31.68,0,0,0,9.72.5,24.58,24.58,0,0,0,10.85-4c.54-.34,1.06-.72,1.57-1.1a48.71,48.71,0,0,0,6.78-20.45C98.16,55.51,97.6,56.14,97,56.74Z" />
</svg>