<svg class="{{ include.class }}" id="bdf7bf86-d423-4cae-b66c-91e869a01e97" data-name="Layer 1" xmlns="http://www.w3.org/2000/svg" viewBox="0 0 100 100">
  <circle class="icon-dark" cx="50" cy="50" r="50" />
  <path class="icon-light icon-h" d="M38.77,45.68c.95.12,1.9.2,2.83.37a12,12,0,0,1,7.93,4.71,6.6,6.6,0,0,1,1.32,3.37c-1.77-3.26-4.78-4.63-8.26-5.2a37.38,37.38,0,0,0-8.78.06,32.12,32.12,0,0,1-9.54-.32,29,29,0,0,1-3.95-1.31c1.17,0,2.35.15,3.52.13a35.57,35.57,0,0,0,3.57-.31c1.19-.15,2.36-.41,3.55-.57,2.11-.3,4.23-.56,6.34-.83a2.15,2.15,0,0,0,.27-.1Z" />
  <path class="icon-light icon-h" d="M38.21,62.09A5.48,5.48,0,0,1,41,59a2.5,2.5,0,0,1,3,.64,4.3,4.3,0,0,1,.85,4c-.36,1.66-.88,3.28-1.22,4.94A48.38,48.38,0,0,0,42.81,84c-3-6.43-3.73-13-.93-19.67a11.42,11.42,0,0,0,.75-2.32c.24-1.48-.67-2.17-2-1.51A22.67,22.67,0,0,0,38.21,62.09Z" />
  <path class="icon-light icon-h" d="M43.93,79c.38-2.36.71-4.73,1.16-7.08a97.74,97.74,0,0,1,3.22-11.51A14,14,0,0,0,49.2,55c-.08-1-.33-1.94-.49-2.85a6.88,6.88,0,0,1,.6.69,9.82,9.82,0,0,1,1.62,6.55A36,36,0,0,1,47.59,71.6c-1,2.32-2.16,4.59-3.26,6.87-.08.18-.19.35-.28.52Z" />
  <path class="icon-light icon-h" d="M42.19,58.25a8.41,8.41,0,0,0-4.53,3.17,22.26,22.26,0,0,0-3,5.51,35.25,35.25,0,0,1-3.47,6.95A12.62,12.62,0,0,1,26.47,78s0-.08,0-.09c1.94-2.15,2.89-4.79,3.82-7.46a56.53,56.53,0,0,1,2.42-6.18,11,11,0,0,1,5.49-5.47,7.15,7.15,0,0,1,3.44-.66Z" />
  <path class="icon-light icon-h" d="M55.39,85c-.71-.69-1.44-1.35-2.13-2.06-1.7-1.78-1.06-1.78-1.91-4.1A8.58,8.58,0,0,0,51,78c-.52-1-1.8-1-3-.19A2.59,2.59,0,0,1,51.39,76a5.86,5.86,0,0,1,2,1.43c2.11,2.38,1.22,3.25,1.85,6.32.08.39.16.77.25,1.16Z" />
  <path class="icon-light icon-h" d="M48.46,76.28c-1.53,1.81-1.49,3.94-1.64,6a14.66,14.66,0,0,1-1,4.67c-.28.66-.7,1.27-1.09,2-.31-1.83-.65-3.52-.85-5.23a7.1,7.1,0,0,1,1.68-5.91A4.81,4.81,0,0,1,48.46,76.28Z" />
  <path class="icon-light icon-h" d="M42.15,61c0,.28.05.56.07.84a1.2,1.2,0,0,1,0-.2A1,1,0,0,0,42.15,61Z" />
  <path class="icon-light icon-h" d="M40.54,49.09q.85,4.3,1.32,8.72h0a3.38,3.38,0,0,1,2.41,1.49c.21.36.46.73.62,1a71.55,71.55,0,0,0-1.21-10.8c-.43-.09-.87-.18-1.31-.25A16.81,16.81,0,0,0,40.54,49.09Z" />
  <path class="icon-light icon-h" d="M39.74,45.42a15.86,15.86,0,0,1,3.17.48A71.37,71.37,0,0,0,40.81,39C38.08,31.36,34.47,24.22,29,18.16,28,17,26.79,16,25.68,15l-.11.17A71.38,71.38,0,0,1,29.88,21,87.71,87.71,0,0,1,39.74,45.42Z" />
  <path class="icon-light icon-h" d="M44.14,87.85c0-.2,0-.4-.08-.6C43,83.18,43.39,79.08,44,75a80.3,80.3,0,0,0,.9-10.07c-.49,2.35-1.1,4.67-1.49,7a44.2,44.2,0,0,0-.16,12.84c0,.14,0,.28,0,.42l.06.71c-.09-.17-.17-.34-.25-.5A14.88,14.88,0,0,0,44.14,87.85Z" />
  <path class="icon-light" d="M44.82,55.75c0,.07,0,.3,0,.37,0,.45,0,.76.07,1.2a31.61,31.61,0,0,1,2.33-6.54.75.75,0,0,0-.41-.24A30.85,30.85,0,0,0,44.82,55.75Z" />
  <path class="icon-light" d="M49.78,46.37l-.08,0h-.32c-.16.21-.31.39-.35.46-.4.56-.8,1.27-1.14,1.86.1.16.24.2.34.36.41-.7.85-1.38,1.32-2.05A1.69,1.69,0,0,0,49.78,46.37Z" />
  <path class="icon-light" d="M47.94,43.29a3.37,3.37,0,0,1,.82-1.42,4.31,4.31,0,0,1,1.66-1.13c1.14,2.16.71,3.73-1.67,5.86-.15-.34-.31-.67-.46-1a3.41,3.41,0,0,1-.44-1.43A3.06,3.06,0,0,1,47.94,43.29Z" />
  <path class="icon-light" d="M52.33,46.88l-2.15-1c1.87-2.16,3.35-2.53,5.94-1.38a4.28,4.28,0,0,1-2.59,2.39Z" />
  <path class="icon-light" d="M79.68,35.77c1.94-1.13,2.95-1.12,4.77.27C82.63,37.68,81.29,37.61,79.68,35.77Z" />
  <path class="icon-light" d="M53.25,42.87c1.78-2,3.33-2.39,5.88-1.34C58.2,43.7,56.12,45,53.25,42.87Z" />
  <path class="icon-light" d="M57.9,34.92c.39,2.57-.72,4.23-3.15,5A3.44,3.44,0,0,1,57.9,34.92Z" />
  <path class="icon-light" d="M75.59,34.53a3.41,3.41,0,0,1,5.54-.45C79,35.84,77.88,35.7,75.59,34.53Z" />
  <path class="icon-light" d="M58.27,37.46a3.51,3.51,0,0,1,4.42-4.06C62.05,36.6,61,37,58.27,37.46Z" />
  <path class="icon-light" d="M53.68,37.32c1.12,2.38.47,4.27-1.63,5.73A3.46,3.46,0,0,1,53.68,37.32Z" />
  <path class="icon-light" d="M60.87,37.57c2.41-1.46,3.88-1.37,6,.36C65.22,39.91,62.87,40.27,60.87,37.57Z" />
  <path class="icon-light" d="M56.82,39.63c2.23-1.59,3.8-1.59,6,0C61.45,41.62,59,42.3,56.82,39.63Z" />
  <path class="icon-light" d="M71.22,34.24a3.31,3.31,0,0,1,5.31-1.84C75.31,34.57,73.5,35.13,71.22,34.24Z" />
  <path class="icon-light" d="M80.79,38c-2.73.91-4.07.29-5-2.3C78.44,35.24,79.52,35.82,80.79,38Z" />
  <path class="icon-light" d="M76,37.18c-2.68,1.3-4.23.12-4.86-2A3.76,3.76,0,0,1,76,37.18Z" />
  <path class="icon-light" d="M72,31.68A4,4,0,0,1,67.26,35C67.13,32.56,69.13,30.7,72,31.68Z" />
  <path class="icon-light" d="M62.52,35.73c.07-2.79,2.14-4.2,4.83-3.34C66.41,35.18,65.45,35.74,62.52,35.73Z" />
  <path class="icon-light" d="M71.53,36.92c-2,1.83-4.08,1.94-5.85-.8C67.59,34.73,69.81,35,71.53,36.92Z" />
</svg>