<svg xmlns="http://www.w3.org/2000/svg" viewBox="0 0 147.04 100.58"><defs><style>.cls-1{fill:#004785;}</style></defs><path class="cls-1" d="M13,12.76H17L23.14,30H19.23l-1.14-3.55H11.73L10.56,30H6.78Zm-.24,10.75h4.42L15,16.71Z"/><path class="cls-1" d="M31.39,17.25a4.06,4.06,0,0,1,2,1.85V17.26h3.26V29.38a6.85,6.85,0,0,1-.83,3.73q-1.43,2.14-5.48,2.15a7.47,7.47,0,0,1-4-1,3.54,3.54,0,0,1-1.71-2.87h3.63a1.54,1.54,0,0,0,.46.85,2.84,2.84,0,0,0,1.81.45,2.45,2.45,0,0,0,2.42-1.2,6.25,6.25,0,0,0,.4-2.61V28.1a4.09,4.09,0,0,1-1,1.23,4.15,4.15,0,0,1-2.59.77,4.93,4.93,0,0,1-3.94-1.73,7,7,0,0,1-1.47-4.68A7.93,7.93,0,0,1,25.7,18.9a4.67,4.67,0,0,1,4-1.94A4.54,4.54,0,0,1,31.39,17.25Zm1.14,9.16a4.15,4.15,0,0,0,.8-2.82,4.3,4.3,0,0,0-.76-2.76,2.49,2.49,0,0,0-2.05-.95,2.42,2.42,0,0,0-2.42,1.65,6,6,0,0,0-.35,2.17,5,5,0,0,0,.38,2,2.42,2.42,0,0,0,2.42,1.61A2.58,2.58,0,0,0,32.53,26.41Z"/><path class="cls-1" d="M46.82,17l.29,0V20.4l-.56,0h-.4a2.77,2.77,0,0,0-2.71,1.31,5.22,5.22,0,0,0-.38,2.27V30H39.69V17.26h3.19v2.23a7.47,7.47,0,0,1,1.35-1.75A3.68,3.68,0,0,1,46.67,17Z"/><path class="cls-1" d="M52.5,15.74H49.12V12.66H52.5Zm-3.38,1.52H52.5V30H49.12Z"/><path class="cls-1" d="M63.38,21.85a3.14,3.14,0,0,0-.48-1.29,2,2,0,0,0-1.75-.78,2.31,2.31,0,0,0-2.32,1.68,6.93,6.93,0,0,0-.33,2.36,6.39,6.39,0,0,0,.33,2.26,2.23,2.23,0,0,0,2.26,1.59A2,2,0,0,0,62.75,27a3.13,3.13,0,0,0,.6-1.64h3.41a5.5,5.5,0,0,1-1.1,2.88A5.37,5.37,0,0,1,61,30.47a5.46,5.46,0,0,1-4.54-1.83A7.44,7.44,0,0,1,55,23.9a7.49,7.49,0,0,1,1.61-5.11A5.59,5.59,0,0,1,61.05,17,6.69,6.69,0,0,1,65,18a5,5,0,0,1,1.81,3.81Z"/><path class="cls-1" d="M72.41,17.26V25a4,4,0,0,0,.26,1.64,1.77,1.77,0,0,0,1.78,1,2.31,2.31,0,0,0,2.33-1.39,5,5,0,0,0,.33-2V17.26H80.5V30H77.25V28.23l-.23.35a2.25,2.25,0,0,1-.45.52,4.52,4.52,0,0,1-1.51,1,5.21,5.21,0,0,1-1.71.26q-2.84,0-3.81-2A7.78,7.78,0,0,1,69,25v-7.7Z"/><path class="cls-1" d="M87.15,30H83.81V12.76h3.34Z"/><path class="cls-1" d="M89.1,19.76V17.38h1.78V13.82h3.31v3.56h2.07v2.38H94.19v6.75c0,.52.06.85.2,1s.53.19,1.21.19h.33l.33,0v2.49l-1.58.06c-1.58.06-2.66-.22-3.24-.82a2.46,2.46,0,0,1-.56-1.77V19.76Z"/><path class="cls-1" d="M101.73,17.26V25A4,4,0,0,0,102,26.6a1.77,1.77,0,0,0,1.78,1,2.31,2.31,0,0,0,2.33-1.39,5,5,0,0,0,.33-2V17.26h3.39V30h-3.25V28.23l-.23.35a2.47,2.47,0,0,1-.44.52,4.65,4.65,0,0,1-1.52,1,5.21,5.21,0,0,1-1.71.26q-2.83,0-3.81-2A7.78,7.78,0,0,1,98.31,25v-7.7Z"/><path class="cls-1" d="M120.16,17l.29,0V20.4l-.56,0h-.4a2.76,2.76,0,0,0-2.71,1.31,5.06,5.06,0,0,0-.39,2.27V30H113V17.26h3.19v2.23a7.22,7.22,0,0,1,1.34-1.75A3.7,3.7,0,0,1,120,17Z"/><path class="cls-1" d="M127.46,22.27a5.18,5.18,0,0,0,1.34-.3,1,1,0,0,0,.72-.94,1.14,1.14,0,0,0-.55-1.09,3.5,3.5,0,0,0-1.63-.3,2.11,2.11,0,0,0-1.69.59,2.41,2.41,0,0,0-.48,1.17H122a4.84,4.84,0,0,1,.94-2.75q1.33-1.7,4.57-1.69a8.2,8.2,0,0,1,3.74.83,3.19,3.19,0,0,1,1.63,3.14v5.86c0,.41,0,.9,0,1.48a1.81,1.81,0,0,0,.2.89,1.21,1.21,0,0,0,.49.38V30h-3.63a2.81,2.81,0,0,1-.21-.73c0-.23-.07-.48-.1-.77a6.84,6.84,0,0,1-1.6,1.27,4.78,4.78,0,0,1-2.45.63,4.2,4.2,0,0,1-2.88-1,3.53,3.53,0,0,1-1.14-2.81,3.63,3.63,0,0,1,1.83-3.41,8.13,8.13,0,0,1,2.95-.82Zm2,1.56a3.91,3.91,0,0,1-.65.32,5.75,5.75,0,0,1-.9.23l-.76.14a4.86,4.86,0,0,0-1.53.45,1.53,1.53,0,0,0-.79,1.42,1.5,1.5,0,0,0,.48,1.24,1.85,1.85,0,0,0,1.17.38,3.52,3.52,0,0,0,2-.63,2.71,2.71,0,0,0,1-2.31Z"/><path class="cls-1" d="M139.16,30h-3.34V12.76h3.34Z"/><path class="cls-1" d="M19.08,42a4.16,4.16,0,0,1,1.61,1.21,5.09,5.09,0,0,1,.87,1.45,4.92,4.92,0,0,1,.32,1.82,5.25,5.25,0,0,1-.62,2.42,3.48,3.48,0,0,1-2.05,1.68A3.19,3.19,0,0,1,20.9,52a5.7,5.7,0,0,1,.5,2.7v1.16a8.1,8.1,0,0,0,.1,1.61,1.42,1.42,0,0,0,.66,1v.44h-4c-.11-.39-.19-.69-.24-.93a9.06,9.06,0,0,1-.15-1.49l0-1.6a3.36,3.36,0,0,0-.57-2.21,3,3,0,0,0-2.06-.55H11.62v6.78H8.09V41.56h8.26A7.78,7.78,0,0,1,19.08,42Zm-7.46,2.55V49.2H15.5a4.13,4.13,0,0,0,1.74-.28,1.94,1.94,0,0,0,1-1.94,2.18,2.18,0,0,0-1-2.11,3.49,3.49,0,0,0-1.67-.31Z"/><path class="cls-1" d="M33.39,46.32a5.22,5.22,0,0,1,2.21,1.89,6.4,6.4,0,0,1,1,2.64,17.22,17.22,0,0,1,.11,2.54H27.42a3.07,3.07,0,0,0,1.34,2.69,3.38,3.38,0,0,0,1.84.48,2.55,2.55,0,0,0,2.54-1.46h3.41a4.14,4.14,0,0,1-1.24,2.31,6.19,6.19,0,0,1-4.8,1.86A7,7,0,0,1,26,57.7c-1.3-1.05-2-2.75-2-5.12a7,7,0,0,1,1.76-5.09,6.16,6.16,0,0,1,4.57-1.77A7.24,7.24,0,0,1,33.39,46.32Zm-5,2.89a3.38,3.38,0,0,0-.89,2h5.75a2.77,2.77,0,0,0-.89-2,2.91,2.91,0,0,0-2-.69A2.62,2.62,0,0,0,28.4,49.21Z"/><path class="cls-1" d="M41,54.76A2.18,2.18,0,0,0,41.47,56a3.07,3.07,0,0,0,2.3.67,3.65,3.65,0,0,0,1.58-.29,1,1,0,0,0,.58-.88,1,1,0,0,0-.47-.86,19.3,19.3,0,0,0-3.5-1,7.2,7.2,0,0,1-3.06-1.35A2.91,2.91,0,0,1,38,50a4,4,0,0,1,1.39-3,5.58,5.58,0,0,1,3.91-1.27,7.19,7.19,0,0,1,3.91,1A4.06,4.06,0,0,1,49,50H45.61a2.05,2.05,0,0,0-.36-1,2.31,2.31,0,0,0-1.88-.68,2.77,2.77,0,0,0-1.56.34,1,1,0,0,0-.46.8.87.87,0,0,0,.49.83,21.4,21.4,0,0,0,3.49.93,6.33,6.33,0,0,1,3,1.42,3.2,3.2,0,0,1,1,2.4,3.88,3.88,0,0,1-1.41,3.1,6.68,6.68,0,0,1-4.38,1.2A6.57,6.57,0,0,1,39.06,58a4.14,4.14,0,0,1-1.44-3.24Z"/><path class="cls-1" d="M60.09,46.32a5.19,5.19,0,0,1,2.2,1.89,6.13,6.13,0,0,1,1,2.64,15.92,15.92,0,0,1,.11,2.54h-9.3a3,3,0,0,0,1.34,2.69,3.38,3.38,0,0,0,1.84.48A2.81,2.81,0,0,0,59.15,56a2.87,2.87,0,0,0,.69-.88h3.41A4.14,4.14,0,0,1,62,57.41a6.22,6.22,0,0,1-4.81,1.86,6.91,6.91,0,0,1-4.49-1.57c-1.3-1.05-2-2.75-2-5.12a6.91,6.91,0,0,1,1.76-5.09,6.14,6.14,0,0,1,4.56-1.77A7.25,7.25,0,0,1,60.09,46.32Zm-5,2.89a3.44,3.44,0,0,0-.89,2H60a2.77,2.77,0,0,0-.89-2,3,3,0,0,0-2-.69A2.64,2.64,0,0,0,55.09,49.21Z"/><path class="cls-1" d="M70.17,51.07a5.08,5.08,0,0,0,1.33-.3,1,1,0,0,0,.73-.94,1.13,1.13,0,0,0-.56-1.09,3.49,3.49,0,0,0-1.62-.3,2.15,2.15,0,0,0-1.7.59,2.41,2.41,0,0,0-.47,1.17H64.65a4.9,4.9,0,0,1,.95-2.75q1.32-1.7,4.56-1.69a8.24,8.24,0,0,1,3.75.83,3.19,3.19,0,0,1,1.63,3.14v5.86c0,.41,0,.9,0,1.48a2,2,0,0,0,.2.89,1.25,1.25,0,0,0,.5.38v.5H72.62a3.9,3.9,0,0,1-.21-.73,7.45,7.45,0,0,1-.09-.77,7.05,7.05,0,0,1-1.6,1.27,4.82,4.82,0,0,1-2.46.63,4.23,4.23,0,0,1-2.88-1,3.54,3.54,0,0,1-1.14-2.81A3.63,3.63,0,0,1,66.07,52a8.2,8.2,0,0,1,3-.82Zm2,1.56a3.82,3.82,0,0,1-.64.32,5.75,5.75,0,0,1-.9.23l-.76.14a4.94,4.94,0,0,0-1.54.45,1.55,1.55,0,0,0-.79,1.42,1.51,1.51,0,0,0,.49,1.24,1.85,1.85,0,0,0,1.17.38,3.52,3.52,0,0,0,2-.63,2.69,2.69,0,0,0,.95-2.31Z"/><path class="cls-1" d="M85.56,45.76l.28,0V49.2c-.21,0-.4,0-.56,0h-.4a2.78,2.78,0,0,0-2.71,1.31,5.22,5.22,0,0,0-.38,2.27v6.11H78.42V46.06h3.19v2.23A7.47,7.47,0,0,1,83,46.54a3.68,3.68,0,0,1,2.44-.78Z"/><path class="cls-1" d="M95.44,50.65A2.88,2.88,0,0,0,95,49.36a2,2,0,0,0-1.75-.78,2.31,2.31,0,0,0-2.32,1.68,6.93,6.93,0,0,0-.33,2.36,6.39,6.39,0,0,0,.33,2.26,2.23,2.23,0,0,0,2.26,1.59,2,2,0,0,0,1.67-.63,3.16,3.16,0,0,0,.6-1.64h3.41a5.61,5.61,0,0,1-1.11,2.88,5.35,5.35,0,0,1-4.65,2.19,5.44,5.44,0,0,1-4.54-1.83,7.39,7.39,0,0,1-1.46-4.74,7.49,7.49,0,0,1,1.61-5.11,5.59,5.59,0,0,1,4.43-1.83,6.67,6.67,0,0,1,3.94,1.08,5,5,0,0,1,1.81,3.81Z"/><path class="cls-1" d="M110.33,46.13a3.83,3.83,0,0,1,1.58,1.26,3.4,3.4,0,0,1,.64,1.47,17.81,17.81,0,0,1,.12,2.47v7.51h-3.41V51.06a3.51,3.51,0,0,0-.35-1.67,1.76,1.76,0,0,0-1.72-.89,2.37,2.37,0,0,0-2,.89,4.09,4.09,0,0,0-.68,2.52v6.93h-3.34V41.62h3.34v6.1a4.1,4.1,0,0,1,1.67-1.56,4.79,4.79,0,0,1,2-.44A5.48,5.48,0,0,1,110.33,46.13Z"/><path class="cls-1" d="M10.61,82.3a3.46,3.46,0,0,0,.66,1.77,3.78,3.78,0,0,0,3.07,1.07,6.55,6.55,0,0,0,2.12-.28,2,2,0,0,0,1.54-2,1.49,1.49,0,0,0-.75-1.33,8.66,8.66,0,0,0-2.4-.81L13,80.31A11.7,11.7,0,0,1,9.19,79a4.23,4.23,0,0,1-1.75-3.74,5,5,0,0,1,1.71-3.86,7.3,7.3,0,0,1,5-1.53,7.7,7.7,0,0,1,4.72,1.45,5.12,5.12,0,0,1,2,4.2H17.46a2.48,2.48,0,0,0-1.39-2.22,4.76,4.76,0,0,0-2.15-.43,4.14,4.14,0,0,0-2.28.56A1.79,1.79,0,0,0,10.78,75a1.47,1.47,0,0,0,.84,1.38,9.89,9.89,0,0,0,2.3.72l3,.71a7.86,7.86,0,0,1,3,1.26,4.22,4.22,0,0,1,1.54,3.53,5,5,0,0,1-1.83,3.93,7.73,7.73,0,0,1-5.17,1.56,8.42,8.42,0,0,1-5.36-1.54,5.09,5.09,0,0,1-2-4.24Z"/><path class="cls-1" d="M32.07,75.12A5.22,5.22,0,0,1,34.28,77a6.25,6.25,0,0,1,1,2.64,15.92,15.92,0,0,1,.11,2.54H26.1a3,3,0,0,0,1.34,2.69,3.38,3.38,0,0,0,1.84.48,2.81,2.81,0,0,0,1.85-.58,2.87,2.87,0,0,0,.69-.88h3.41A4.14,4.14,0,0,1,34,86.21a6.21,6.21,0,0,1-4.8,1.86,7,7,0,0,1-4.5-1.57c-1.3-1-2-2.75-2-5.12a6.91,6.91,0,0,1,1.76-5.09,6.14,6.14,0,0,1,4.56-1.77A7.25,7.25,0,0,1,32.07,75.12Zm-5,2.89a3.44,3.44,0,0,0-.89,2h5.76a2.77,2.77,0,0,0-.89-2,3,3,0,0,0-2-.69A2.64,2.64,0,0,0,27.07,78Z"/><path class="cls-1" d="M44.19,74.56l.29,0V78c-.22,0-.4,0-.57,0h-.4a2.75,2.75,0,0,0-2.7,1.31,5.06,5.06,0,0,0-.39,2.27v6.11H37.06V74.86h3.18v2.23a7.47,7.47,0,0,1,1.35-1.75A3.7,3.7,0,0,1,44,74.56Z"/><path class="cls-1" d="M54.3,74.86h3.59L53.27,87.64H49.75L45.17,74.86h3.75l2.66,9.43Z"/><path class="cls-1" d="M63.21,73.34H59.83V70.26h3.38Zm-3.38,1.52h3.38V87.64H59.83Z"/><path class="cls-1" d="M74.09,79.45a2.88,2.88,0,0,0-.48-1.29,2,2,0,0,0-1.75-.78,2.31,2.31,0,0,0-2.32,1.68,6.93,6.93,0,0,0-.33,2.36,6.39,6.39,0,0,0,.33,2.26,2.23,2.23,0,0,0,2.26,1.59,2,2,0,0,0,1.67-.63A3.25,3.25,0,0,0,74.06,83h3.42a5.61,5.61,0,0,1-1.11,2.88,5.36,5.36,0,0,1-4.65,2.19,5.44,5.44,0,0,1-4.54-1.83,7.39,7.39,0,0,1-1.46-4.74,7.49,7.49,0,0,1,1.61-5.11,5.59,5.59,0,0,1,4.43-1.83,6.67,6.67,0,0,1,3.94,1.08,5,5,0,0,1,1.81,3.81Z"/><path class="cls-1" d="M88.12,75.12A5.22,5.22,0,0,1,90.33,77a6.25,6.25,0,0,1,1,2.64,15.92,15.92,0,0,1,.11,2.54h-9.3a3,3,0,0,0,1.34,2.69,3.38,3.38,0,0,0,1.84.48,2.81,2.81,0,0,0,1.85-.58,2.87,2.87,0,0,0,.69-.88h3.41A4.14,4.14,0,0,1,90,86.21a6.19,6.19,0,0,1-4.8,1.86,7,7,0,0,1-4.5-1.57c-1.3-1-1.95-2.75-1.95-5.12a6.91,6.91,0,0,1,1.76-5.09,6.14,6.14,0,0,1,4.56-1.77A7.25,7.25,0,0,1,88.12,75.12Zm-5,2.89a3.44,3.44,0,0,0-.89,2H88a2.77,2.77,0,0,0-.89-2,3,3,0,0,0-2-.69A2.64,2.64,0,0,0,83.12,78Z"/></svg>