<?xml version="1.0" encoding="UTF-8"?>
<svg id="SCINet_logo" xmlns="http://www.w3.org/2000/svg" xmlns:xlink="http://www.w3.org/1999/xlink" viewBox="0 0 350 100" width="100%" height="100%">
  <defs>
    <style>
      .cls-green {
        fill: #00a91c;
      }

      .cls-blue {
        fill: #1a4480;
      }

      .cls-gradient {
        fill: url(#dark-gradient);
      }

      .cls-mint {
        fill: #0f6460;
      }
    </style>
    <linearGradient id="dark-gradient" x1="247.98" y1="72.73" x2="309.22" y2="72.73" gradientTransform="translate(0 102) scale(1 -1)" gradientUnits="userSpaceOnUse">
      <stop offset="0" stop-color="#00a91c" />
      <stop offset=".62" stop-color="#1a4480" />
    </linearGradient>
  </defs>
  <path class="cls-gradient" d="M296.51,31.16c.82,2.62,3.29,4.52,6.21,4.52,3.59,0,6.5-2.87,6.5-6.41s-2.91-6.41-6.5-6.41c-2.92,0-5.4,1.9-6.21,4.52h-47.78l-.75,3.77h48.53Zm6.21-5.51c2.04,0,3.69,1.63,3.69,3.64s-1.65,3.64-3.69,3.64-3.69-1.63-3.69-3.64,1.65-3.64,3.69-3.64Z" />
  <g>
    <path class="cls-blue" d="M321.39,49.25c-2.92,0-5.4,1.9-6.21,4.52h-64.19l9.42-9.42h14.05c.82,2.62,3.29,4.52,6.21,4.52,3.59,0,6.5-2.87,6.5-6.41s-2.91-6.41-6.5-6.41c-2.92,0-5.4,1.9-6.21,4.52h-15.56l-13.19,13.19h-27.9l-13.19,13.19H120.56s-9.68-.02-14.7,.04c-2.01,.02-6.6,.08-11.31,.75-2.13,.31-3.64,.64-4.15,.75-2.63,.6-4.59,1.26-5.28,1.51-.86,.3-3.41,1.21-6.03,2.64-1.84,1-5.87,3.24-9.42,7.54-3.96,4.79-5.43,9.83-6.03,12.82h0c.92-2.7,2.44-5.92,5.01-9.04,3.56-4.3,7.58-6.54,9.42-7.54,2.62-1.43,5.17-2.33,6.03-2.64,.69-.24,2.64-.91,5.28-1.51,.5-.11,2.02-.45,4.15-.75,4.71-.68,9.3-.73,11.31-.75,3.62-.04,12.24-.04,15.34-.04h175.01c.82,2.62,3.29,4.52,6.21,4.52,3.59,0,6.5-2.87,6.5-6.41s-2.91-6.41-6.5-6.41c-2.92,0-5.4,1.9-6.21,4.52h-85.3l9.42-9.42h95.85c.82,2.62,3.29,4.52,6.21,4.52,3.59,0,6.5-2.87,6.5-6.41s-2.91-6.41-6.5-6.41l.02,.02Zm-40.71-10.42c2.04,0,3.69,1.63,3.69,3.64s-1.65,3.64-3.69,3.64-3.69-1.63-3.69-3.64,1.65-3.64,3.69-3.64Zm20.73,26.39c2.04,0,3.69,1.63,3.69,3.64s-1.65,3.64-3.69,3.64-3.69-1.63-3.69-3.64,1.65-3.64,3.69-3.64Zm19.98-5.92c-2.04,0-3.69-1.63-3.69-3.64s1.65-3.64,3.69-3.64,3.69,1.63,3.69,3.64-1.65,3.64-3.69,3.64Z" />
    <path class="cls-blue" d="M75.93,71.91c.81-.5,1.51-.88,2.03-1.17,2.52-1.37,4.95-2.26,5.91-2.6-3.19,0-11.64,0-15.22-.04-2.01-.02-6.6-.08-11.31-.75-2.13-.31-3.64-.64-4.15-.75-2.63-.6-4.59-1.26-5.28-1.51-.86-.3-3.41-1.21-6.03-2.64-1.84-1-5.87-3.24-9.42-7.54-2.58-3.12-4.26-5.65-5.39-8.29h0c.6,2.98,2.46,7.28,6.41,12.07,3.56,4.3,7.58,6.54,9.42,7.54,2.62,1.43,5.17,2.33,6.03,2.64,.69,.24,2.64,.91,5.28,1.51,.5,.11,2.02,.45,4.15,.75,4.71,.68,9.3,.73,11.31,.75,1.73,.02,4.01,.03,6.26,.04h0Z" />
  </g>
  <g id="SCINet-text">
    <g id="Net-text">
      <path class="cls-green" d="M237.57,48.99c-1.12-.05-2.26-.13-3.32-.53-.36-.13-.71-.3-1.03-.5-1.12-.69-1.68-1.89-1.68-3.63,0-.34,.02-.72,.07-1.13s.13-.84,.23-1.28l2.15-10.93h-3.75l1.25-3.62h3.25l.98-4.88,5.76-2.5-1.49,7.38h5l-.75,3.77h-5l-2.21,10.8c-.07,.26-.14,.55-.19,.85s-.07,.56-.07,.8c0,.56,.18,1.01,.56,1.33,.37,.32,.93,.47,1.69,.47,.49,0,.97-.08,1.44-.22,.09-.03,.93-.34,.93-.37,0,0-.75,3.76-.75,3.77-.01,.06-1.88,.46-3.08,.41Z" />
      <path class="cls-green" d="M216.33,48.99c-1.88,0-3.52-.31-4.92-.93-1.4-.62-2.48-1.53-3.26-2.74s-1.15-2.69-1.15-4.43,.3-3.44,.88-5.09c.58-1.66,1.44-3.14,2.57-4.48,1.12-1.33,2.49-2.39,4.11-3.16,1.62-.78,3.46-1.17,5.51-1.17,2.52,0,4.41,.49,5.68,1.47s1.9,2.28,1.9,3.89c0,1.09-.29,2.08-.87,2.98-.58,.9-1.46,1.69-2.63,2.35-1.17,.65-2.66,1.17-4.47,1.52-1.8,.36-3.91,.53-6.34,.53h-1c-.01,.19-.03,.39-.04,.58-.01,.19-.02,.4-.02,.58,0,1.42,.43,2.53,1.29,3.34s2.11,1.22,3.75,1.22c1.25,0,2.39-.14,3.45-.41,1.05-.27,2.23-.67,3.53-1.21,0,0-.75,3.55-.75,3.55-.9,.37-1.77,.84-2.71,1.09-1.29,.35-2.62,.45-3.95,.48-.18,0-.36,0-.53,.01Zm-3.35-12.49h.75c1.81,0,3.38-.15,4.71-.45,1.33-.3,2.37-.75,3.09-1.35,.73-.59,1.09-1.31,1.09-2.16,0-.66-.24-1.19-.72-1.58s-1.19-.57-2.15-.57-1.85,.25-2.76,.75c-.9,.5-1.71,1.21-2.42,2.12-.71,.91-1.25,1.99-1.6,3.22h0Z" />
      <path class="cls-green" d="M176.55,24.41h-.13c0,.06-.8,5.19-1.76,10.56l-4.45,24.88h-4.86l7.82-43.75h5.17l16.14,35.31h.13c0-.06,.8-5.19,1.73-10.38l4.46-24.94h4.92l-7.82,43.75h-5.17l-16.18-35.44h0Z" />
    </g>
    <g id="SCI-text">
      <path class="cls-blue" d="M82.19,47.1c-.31,4.94,2.87,7.56,8.42,7.56,4.98,0,8.39-2.12,9.15-6.38,1.03-5.75-4.47-6.37-9.22-8.06-5.29-1.81-11.65-4.31-10.09-13.06,1.35-7.56,7.42-11.88,16.31-11.88,7.76,0,13.05,3.19,13.37,10.94l-6.67,1.69c-.23-4.38-2.59-6.69-7.76-6.69s-7.76,2.13-8.42,5.81c-.87,4.88,3.27,6.06,8.82,7.81,5.73,1.81,12.04,4.25,10.41,13.38-1.46,8.19-7.58,12.44-16.92,12.44-7.38,0-14.28-2.69-14.08-11.88l6.67-1.69h.01Z" />
      <path class="cls-blue" d="M148.14,47.54c-4.21,8-11.62,13.12-20.76,13.12-11.6,0-18.53-8.19-15.91-22.81,2.6-14.56,12.36-22.56,24.15-22.56,9.59,0,14.68,5.38,15.69,12.06l-6.81,1.75c-.8-3.62-3.57-7.56-10.25-7.56-8.07,0-14.16,5.81-16.03,16.31-1.94,10.88,2.41,16.5,10.1,16.5,5.93,0,10.67-3.25,13.63-8.5l6.19,1.69h0Z" />
      <path class="cls-blue" d="M158.99,16.1h6.69l-7.82,43.75h-6.69l7.82-43.75Z" />
    </g>
  </g>
  <g id="leaf-logo">
    <g>
      <path class="cls-mint" d="M44.79,41.56l12.82,12.82v-18.34c-4.38-4.66-9-7.25-12.82-9.23v14.75Z" />
      <path class="cls-mint" d="M61.37,58.14l5.27,5.27c.54-3.2,.87-8.09-.74-13.62-1.14-3.94-2.9-6.93-4.52-9.19v17.54h0Z" />
      <path class="cls-mint" d="M36.12,32.89v-9.33c-3.45-.94-7.48-1.79-11.76-2.44l11.76,11.76h0Z" />
      <path class="cls-mint" d="M41.02,25.11c-.92-.34-1.93-.68-3.02-1.01v10.67l3.02,3.02v-12.67h0Z" />
    </g>
    <g>
      <path class="cls-green" d="M39.4,41.5h-12.42c2.29,5.04,5.34,9.7,9.22,13.57h16.76l-13.57-13.57h.01Z" />
      <path class="cls-green" d="M56.74,58.84h-16.11c8.18,5.85,17.4,6.59,22.64,6.53l-6.53-6.53Z" />
      <path class="cls-green" d="M22.13,24.23c.02,.2,.03,.35,.04,.41,.61,4.39,1.68,8.83,3.26,13.08h10.19l-13.49-13.49Z" />
    </g>
  </g>
  <g id="scientific-computing-initiative">
    <path class="cls-green" d="M273.86,79.75c.19-.21,.28-.49,.28-.83,0-.3-.09-.49-.28-.6s-.41-.16-.66-.16-.45,.04-.62,.12c-.18,.08-.31,.2-.4,.38s-.14,.38-.14,.62c0,.29,.1,.48,.28,.6s.41,.18,.68,.18c.39,0,.67-.1,.86-.32Zm.37,6.82s-.27,1.38-.27,1.38c0,.02-.68,.17-1.1,.15-.4-.02-.81-.05-1.19-.2-.13-.05-.25-.11-.37-.18-.4-.25-.6-.7-.6-1.33,0-.12,0-.26,.03-.41,.02-.15,.05-.31,.08-.47l.94-4.56h0s.5,0,.5,0h1.41s-.27,1.26-.27,1.26l-.8,3.82s0,.07,0,.1c0,.21,.06,.37,.2,.49,.13,.12,.33,.17,.61,.17,.17,0,.35-.03,.52-.08,.03,0,.33-.13,.33-.14Z" />
    <path class="cls-green" d="M285.55,88.12c-.65,0-1.22-.1-1.71-.31-.48-.2-.86-.51-1.13-.91s-.4-.89-.4-1.47,.1-1.14,.3-1.68c.2-.55,.5-1.04,.89-1.48,.39-.44,.87-.79,1.43-1.05,.56-.26,1.2-.39,1.91-.39,.87,0,1.53,.16,1.97,.49s.66,.76,.66,1.29c0,.36-.1,.69-.3,.99-.2,.3-.51,.56-.91,.78-.41,.22-.92,.39-1.55,.5-.62,.12-1.36,.18-2.2,.18h-.35c0,.06-.01,.13-.01,.19,0,.06,0,.13,0,.19,0,.47,.15,.84,.45,1.11s.73,.4,1.3,.4c.43,0,.83-.05,1.2-.13,.36-.09,.77-.22,1.22-.4l-.26,1.17c-.31,.12-.61,.28-.94,.36-.45,.12-.91,.15-1.37,.16-.06,0-.13,0-.19,0Zm-1.16-4.13h.26c.63,0,1.17-.05,1.64-.15,.46-.1,.82-.25,1.07-.45,.25-.2,.38-.43,.38-.71,0-.22-.08-.39-.25-.52s-.41-.19-.74-.19-.64,.08-.96,.25c-.31,.16-.59,.4-.84,.7-.25,.3-.43,.66-.55,1.07h0Z" />
    <path class="cls-green" d="M276.4,88.01l-.92-7h1.98l.31,3.67c0,.1,.02,.24,.02,.41s.01,.34,.02,.53v.51h.06c.05-.14,.12-.3,.18-.48,.07-.18,.14-.35,.21-.51s.14-.3,.19-.4l1.99-3.72h2.16l-4.04,7h-2.16Z" />
    <path class="cls-green" d="M267.73,88.28c-.36-.01-.72-.09-1.05-.23-.39-.17-.77-.48-.93-.88-.1-.26-.13-.54-.11-.82,.03-.42,.13-.82,.23-1.23s.19-.83,.29-1.24l.32-1.41v-.06s-1.43,0-1.43,0l.33-1.45h1.44l.43-1.89,1.98-.95-.64,2.84h1.89l-.28,1.45h-1.92c-.07,.31-.14,.62-.21,.92l-.36,1.59c-.09,.4-.21,.84-.24,1.24-.02,.22-.03,.43,.15,.58,.17,.13,.4,.16,.61,.16,.18,0,.37-.03,.54-.09,.03-.01,.35-.13,.35-.14,0,0-.28,1.45-.28,1.45,0,.04-.24,.07-.27,.07-.19,.04-.38,.06-.58,.07-.08,0-.16,0-.24,0Z" />
    <path class="cls-green" d="M259.25,88.13c-.35,0-.68-.08-1-.25s-.57-.44-.76-.81c-.2-.37-.3-.86-.3-1.48,0-.46,.05-.91,.15-1.36s.25-.88,.44-1.28,.43-.76,.7-1.07c.28-.31,.59-.56,.94-.74s.73-.27,1.14-.27c.31,0,.58,.04,.81,.13s.43,.21,.6,.36,.3,.33,.4,.54h.05l.37-.9h1.52l-1.55,7h-1.47l.09-.91h-.05c-.18,.2-.36,.38-.57,.54-.21,.15-.43,.28-.68,.36-.25,.09-.53,.13-.84,.13h0Zm.77-1.51c.27,0,.52-.1,.75-.3s.43-.47,.6-.79c.17-.33,.28-.67,.35-1.03,.03-.17,.06-.33,.07-.5s.02-.35,.02-.55c0-.3-.08-.54-.25-.74-.17-.19-.38-.29-.67-.29-.2,0-.37,.06-.55,.18s-.33,.28-.48,.49c-.14,.21-.27,.44-.37,.71-.1,.27-.19,.55-.25,.84s-.08,.59-.08,.89c0,.36,.07,.64,.22,.82s.35,.28,.62,.28h.01Z" />
    <path class="cls-green" d="M256.37,86.57s-.27,1.38-.27,1.38c0,.02-.68,.17-1.1,.15-.4-.02-.81-.05-1.19-.2-.13-.05-.25-.11-.37-.18-.4-.25-.6-.7-.6-1.33,0-.12,0-.26,.03-.41,.02-.15,.05-.31,.08-.47l.94-4.56h0s.5,0,.5,0h1.41s-.27,1.26-.27,1.26l-.8,3.82s0,.07,0,.1c0,.21,.06,.37,.2,.49,.13,.12,.33,.17,.61,.17,.17,0,.35-.03,.52-.08,.03,0,.33-.13,.33-.14Zm-.37-6.82c.19-.21,.28-.49,.28-.83,0-.3-.09-.49-.28-.6s-.41-.16-.66-.16-.45,.04-.62,.12c-.18,.08-.31,.2-.4,.38s-.14,.38-.14,.62c0,.29,.1,.48,.28,.6s.41,.18,.68,.18c.39,0,.67-.1,.86-.32Z" />
    <path class="cls-green" d="M249.83,88.28c-.36-.01-.72-.09-1.05-.23-.39-.17-.77-.48-.93-.88-.1-.26-.13-.54-.11-.82,.03-.42,.13-.82,.23-1.23s.19-.83,.29-1.24l.32-1.41v-.06s-1.43,0-1.43,0l.33-1.45h1.44l.43-1.89,1.98-.95-.64,2.84h1.89l-.28,1.45h-1.92c-.07,.31-.14,.62-.21,.92l-.36,1.59c-.09,.4-.21,.84-.24,1.24-.02,.22-.03,.43,.15,.58,.17,.13,.4,.16,.61,.16,.18,0,.37-.03,.54-.09,.03-.01,.35-.13,.35-.14,0,0-.28,1.45-.28,1.45,0,.04-.24,.07-.27,.07-.19,.04-.38,.06-.58,.07-.08,0-.16,0-.24,0Z" />
    <path class="cls-green" d="M246.57,86.57s-.27,1.38-.27,1.38c0,.02-.68,.17-1.1,.15-.4-.02-.81-.05-1.19-.2-.13-.05-.25-.11-.37-.18-.4-.25-.6-.7-.6-1.33,0-.12,0-.26,.03-.41,.02-.15,.05-.31,.08-.47l.94-4.56h0s.5,0,.5,0h1.41s-.27,1.26-.27,1.26l-.8,3.82s0,.07,0,.1c0,.21,.06,.37,.2,.49,.13,.12,.33,.17,.61,.17,.17,0,.35-.03,.52-.08,.03,0,.33-.13,.33-.14Zm-.37-6.82c.19-.21,.28-.49,.28-.83,0-.3-.09-.49-.28-.6s-.41-.16-.66-.16-.45,.04-.62,.12c-.18,.08-.31,.2-.4,.38s-.14,.38-.14,.62c0,.29,.1,.48,.28,.6s.41,.18,.68,.18c.39,0,.67-.1,.86-.32Z" />
    <path class="cls-green" d="M234.43,88.01l1.55-7h1.51l-.13,1.3h.06c.19-.28,.39-.53,.62-.74s.47-.38,.75-.5,.59-.18,.93-.18c.41,0,.76,.08,1.04,.25,.28,.17,.5,.4,.63,.7,.14,.3,.21,.66,.21,1.07,0,.15-.01,.33-.04,.52-.03,.19-.06,.39-.11,.61l-.87,3.99h-1.96l.9-4.09c.03-.14,.06-.28,.08-.4s.03-.24,.03-.34c0-.26-.06-.46-.18-.58s-.3-.19-.53-.19c-.3,0-.57,.12-.81,.37-.24,.24-.44,.57-.62,.98-.18,.41-.32,.86-.43,1.36l-.64,2.9h-1.96l-.03-.03Z" />
    <path class="cls-green" d="M230.04,88.01l1.97-9.15h1.94l-1.97,9.15h-1.94Z" />
    <path class="cls-green" d="M223.25,89.16c.39-.82,.51-1.75,.7-2.64l.91-4.22,.28-1.29h-1.52l-.35,1.05h-.06c-.07-.2-.16-.39-.28-.58-.12-.18-.29-.33-.5-.45-.21-.11-.47-.17-.79-.17-.35,0-.72,.08-1.12,.25-.4,.17-.76,.44-1.12,.81-.36,.37-.67,.87-.94,1.48-.2,.45-.35,.91-.44,1.34-.09,.45-.13,.87-.11,1.27,.02,.4,.1,.76,.24,1.06,.13,.31,.35,.55,.63,.73,.27,.18,.62,.27,1.04,.27,.36,0,.71-.06,1.05-.16,.17-.05,.34-.1,.5-.17,.16-.06,.33-.12,.47-.21,.08-.05,.15-.11,.21-.17,.04-.04,.13-.12,.13-.18,0,.15-.35,1.02-.41,1.14-.4,.86-1.13,1.15-2.08,1.15-.36,0-.71-.06-1.04-.17-.32-.11-.62-.25-.9-.43l-.36,1.59c.31,.14,.65,.25,1.01,.34,.35,.09,.75,.13,1.17,.13,1.28,0,2.43-.09,3.29-1.11,.15-.18,.31-.47,.41-.68Zm-1.63-2.88c-.25,.2-.52,.3-.8,.3h-.01c-.2,0-.35-.05-.47-.17s-.21-.28-.26-.49c-.05-.21-.08-.44-.06-.71,.01-.26,.05-.54,.13-.84s.18-.59,.31-.89c.16-.37,.35-.64,.58-.83,.22-.18,.48-.28,.77-.28,.21,0,.38,.05,.5,.16,.13,.1,.22,.24,.27,.42s.09,.37,.08,.59-.02,.45-.06,.68c-.04,.23-.1,.46-.16,.68s-.14,.41-.21,.58c-.14,.33-.35,.6-.6,.8Z" />
    <path class="cls-green" d="M209.57,88.01l1.54-7h1.5l-.13,1.3h.06c.18-.28,.39-.53,.62-.74s.47-.38,.75-.5,.58-.18,.92-.18c.41,0,.76,.08,1.04,.25,.28,.17,.49,.4,.63,.7,.14,.3,.21,.66,.21,1.07,0,.15-.01,.33-.04,.52-.03,.19-.06,.39-.11,.61l-.86,3.99h-1.95l.89-4.09c.03-.14,.06-.28,.08-.4s.03-.24,.03-.34c0-.26-.06-.46-.17-.58s-.3-.19-.52-.19c-.3,0-.56,.12-.8,.37-.24,.24-.44,.57-.62,.98-.17,.41-.32,.86-.43,1.36l-.64,2.9h-1.95l-.03-.03Z" />
    <path class="cls-green" d="M208.8,86.57s-.27,1.38-.27,1.38c0,.02-.68,.17-1.1,.15-.4-.02-.81-.05-1.19-.2-.13-.05-.25-.11-.37-.18-.4-.25-.6-.7-.6-1.33,0-.12,0-.26,.03-.41,.02-.15,.05-.31,.08-.47l.94-4.56h0s.5,0,.5,0h1.41s-.27,1.26-.27,1.26l-.8,3.82s0,.07,0,.1c0,.21,.06,.37,.2,.49,.13,.12,.33,.17,.61,.17,.17,0,.35-.03,.52-.08,.03,0,.33-.13,.33-.14Zm-.37-6.82c.19-.21,.28-.49,.28-.83,0-.3-.09-.49-.28-.6s-.41-.16-.66-.16-.45,.04-.62,.12c-.18,.08-.31,.2-.4,.38s-.14,.38-.14,.62c0,.29,.1,.48,.28,.6s.41,.18,.68,.18c.39,0,.67-.1,.86-.32Z" />
    <path class="cls-green" d="M202.34,88.28c-.36-.01-.72-.09-1.05-.23-.39-.17-.77-.48-.93-.88-.1-.26-.13-.54-.11-.82,.03-.42,.13-.82,.23-1.23s.19-.83,.29-1.24l.32-1.41v-.06s-1.43,0-1.43,0l.33-1.45h1.44l.43-1.89,1.98-.95-.64,2.84h1.89l-.28,1.45h-1.92c-.07,.31-.14,.62-.21,.92l-.36,1.59c-.09,.4-.21,.84-.24,1.24-.02,.22-.03,.43,.15,.58,.17,.13,.4,.16,.61,.16,.18,0,.37-.03,.54-.09,.03-.01,.35-.13,.35-.14,0,0-.28,1.45-.28,1.45,0,.04-.24,.07-.27,.07-.19,.04-.38,.06-.58,.07-.08,0-.16,0-.24,0Z" />
    <path class="cls-green" d="M193.73,88.13c-.42,0-.76-.08-1.04-.24-.28-.16-.48-.39-.61-.7s-.21-.66-.21-1.07c0-.15,.01-.35,.04-.59s.06-.49,.11-.74l.83-3.78h1.96l-.9,4.09c-.03,.14-.05,.28-.07,.4s-.03,.24-.03,.34c0,.26,.06,.46,.18,.58s.29,.19,.53,.19c.3,0,.57-.12,.81-.37s.44-.57,.62-.98,.32-.86,.43-1.35l.64-2.9h1.96l-1.55,7h-1.51l.13-1.3h-.07c-.19,.28-.39,.52-.62,.74s-.48,.38-.74,.5-.58,.18-.92,.18h.03Z" />
    <path class="cls-green" d="M182.57,91.09l2.27-10.08h1.53l-.12,1.06h.06c.16-.2,.34-.39,.54-.58,.2-.18,.44-.33,.7-.45,.26-.11,.55-.17,.87-.17,.36,0,.69,.08,1.02,.25s.58,.44,.78,.81c.2,.37,.29,.87,.29,1.49,0,.45-.05,.91-.16,1.35-.11,.45-.25,.87-.45,1.28-.2,.4-.44,.76-.71,1.07s-.6,.55-.96,.73-.75,.27-1.17,.27c-.3,0-.56-.04-.77-.13s-.39-.21-.53-.37c-.15-.15-.27-.33-.4-.52h-.05c-.03,.34-.06,.65-.11,.94-.04,.29-.11,.59-.18,.91l-.48,2.13h-2Zm4.17-4.46c.2,0,.38-.06,.56-.18s.34-.28,.48-.49,.27-.44,.38-.71c.11-.26,.19-.54,.24-.84,.05-.3,.08-.59,.08-.89,0-.37-.07-.64-.22-.83-.15-.18-.36-.28-.65-.28-.21,0-.41,.05-.58,.16-.18,.1-.33,.24-.46,.42s-.25,.37-.35,.59c-.09,.22-.18,.45-.24,.68s-.11,.46-.14,.68-.04,.41-.04,.58c0,.33,.08,.6,.25,.8s.39,.3,.67,.3h.01Z" />
    <path class="cls-green" d="M171.06,88.01l1.54-7h1.49l-.13,1.3h.06c.19-.28,.39-.53,.62-.74s.47-.38,.75-.5c.28-.12,.59-.18,.93-.18,.49,0,.88,.13,1.16,.38s.45,.6,.55,1.05h.05c.19-.28,.39-.53,.62-.74s.48-.38,.77-.5,.6-.18,.93-.18c.61,0,1.06,.18,1.37,.54,.3,.36,.45,.85,.45,1.47,0,.15-.01,.33-.04,.52-.03,.19-.06,.39-.11,.61l-.86,3.99h-1.95l.9-4.09c.03-.14,.06-.28,.08-.4s.03-.24,.03-.34c0-.26-.05-.46-.16-.58-.1-.12-.27-.19-.47-.19-.23,0-.43,.07-.63,.21s-.36,.33-.52,.58c-.15,.25-.3,.53-.41,.86-.12,.33-.22,.68-.3,1.05l-.63,2.91h-1.95l.9-4.09c.03-.14,.06-.28,.08-.4s.03-.24,.03-.34c0-.26-.05-.46-.16-.58-.1-.12-.27-.19-.47-.19s-.43,.07-.62,.21c-.2,.14-.36,.34-.52,.59-.15,.25-.3,.54-.41,.86-.12,.33-.22,.67-.3,1.04l-.64,2.9h-1.95l-.03-.03Z" />
    <path class="cls-green" d="M166.21,88.13c-.56,0-1.05-.11-1.48-.33s-.77-.53-1.01-.93c-.24-.4-.36-.88-.36-1.44,0-.5,.05-.97,.16-1.42,.11-.45,.26-.87,.47-1.25s.47-.71,.79-1c.32-.28,.68-.5,1.1-.66,.42-.16,.89-.23,1.42-.23,.58,0,1.07,.11,1.49,.33s.75,.54,.98,.95,.35,.91,.35,1.5c0,.48-.05,.93-.15,1.37s-.25,.85-.45,1.23c-.2,.38-.46,.71-.77,.99-.32,.28-.67,.5-1.1,.66s-.9,.23-1.45,.23h.01Zm.17-1.53c.22,0,.42-.05,.61-.16s.35-.25,.48-.44,.26-.41,.36-.66,.17-.52,.22-.8c.05-.29,.07-.58,.07-.88,0-.24-.03-.45-.08-.64-.06-.19-.16-.33-.29-.44s-.33-.16-.56-.16-.46,.06-.65,.19-.36,.3-.5,.51-.26,.45-.36,.71-.16,.53-.21,.81c-.04,.28-.07,.54-.07,.8,0,.38,.08,.67,.24,.86,.17,.2,.41,.29,.75,.29h0Z" />
    <path class="cls-green" d="M158.77,88.13c-.79,0-1.44-.15-1.97-.44s-.93-.71-1.2-1.25c-.26-.54-.4-1.17-.4-1.9,0-.54,.06-1.08,.2-1.63,.13-.55,.33-1.08,.6-1.58,.26-.5,.61-.95,1.02-1.34s.91-.7,1.47-.93,1.21-.34,1.93-.34c.62,0,1.14,.05,1.57,.16s.86,.27,1.3,.49l-.79,1.57c-.32-.17-.64-.32-.97-.43-.33-.12-.71-.17-1.11-.17-.44,0-.83,.08-1.17,.25s-.63,.39-.89,.68c-.24,.29-.45,.61-.61,.96-.16,.36-.27,.73-.36,1.11s-.12,.75-.12,1.11c0,.69,.16,1.21,.46,1.55s.79,.51,1.45,.51c.37,0,.74-.04,1.12-.13s.76-.21,1.14-.35v1.63c-.27,.1-.63,.21-1.09,.32s-.98,.17-1.58,.17v-.02Z" />
    <path class="cls-green" d="M147.17,88.13c-.52,0-.98-.09-1.4-.26s-.75-.45-1-.83c-.24-.38-.37-.87-.37-1.49,0-.5,.05-.99,.17-1.45s.27-.89,.49-1.28,.48-.73,.81-1.02,.68-.52,1.09-.68,.87-.24,1.38-.24c.44,0,.84,.04,1.2,.12s.68,.19,.99,.33l-.61,1.43c-.24-.1-.47-.18-.7-.25s-.49-.11-.79-.11c-.32,0-.6,.08-.84,.26-.24,.17-.45,.4-.62,.69s-.31,.61-.39,.97-.14,.72-.14,1.09c0,.26,.04,.48,.14,.66,.09,.18,.22,.32,.39,.41,.17,.09,.38,.14,.61,.14,.34,0,.65-.05,.94-.15s.59-.22,.89-.37v1.54c-.32,.15-.64,.28-1.01,.36-.36,.09-.77,.13-1.23,.13h0Z" />
    <path class="cls-green" d="M143.47,86.57s-.27,1.38-.27,1.38c0,.02-.68,.17-1.1,.15-.4-.02-.81-.05-1.19-.2-.13-.05-.25-.11-.37-.18-.4-.25-.6-.7-.6-1.33,0-.12,0-.26,.03-.41,.02-.15,.05-.31,.08-.47l.94-4.56h0s.5,0,.5,0h1.41s-.27,1.26-.27,1.26l-.8,3.82s0,.07,0,.1c0,.21,.06,.37,.2,.49,.13,.12,.33,.17,.61,.17,.17,0,.35-.03,.52-.08,.03,0,.33-.13,.33-.14Zm-.37-6.82c.19-.21,.28-.49,.28-.83,0-.3-.09-.49-.28-.6s-.41-.16-.66-.16-.45,.04-.62,.12c-.18,.08-.31,.2-.4,.38s-.14,.38-.14,.62c0,.29,.1,.48,.28,.6s.41,.18,.68,.18c.39,0,.67-.1,.86-.32Z" />
    <path class="cls-green" d="M139.99,77.84c-.22-.03-.44-.05-.65-.05-.82,0-1.48,.19-1.96,.57-.48,.38-.81,.96-.99,1.74l-.21,.92h0s-.03,0-.03,0h-1.23l-.47,1.4,1.43,.02v.03s-1.34,7.08-1.34,7.08h2l1.34-7.08h0s1.85,0,1.85,0l.28-1.45h-1.8l.17-.71c.08-.34,.2-.6,.36-.76,.16-.16,.39-.24,.69-.24,.13,0,.27,.01,.41,.05,.14,.03,.26,.07,.38,.12l.31-1.52c-.14-.05-.32-.09-.54-.12Z" />
    <path class="cls-green" d="M133.55,86.57s-.27,1.38-.27,1.38c0,.02-.68,.17-1.1,.15-.4-.02-.81-.05-1.19-.2-.13-.05-.25-.11-.37-.18-.4-.25-.6-.7-.6-1.33,0-.12,0-.26,.03-.41,.02-.15,.05-.31,.08-.47l.94-4.56h0s.5,0,.5,0h1.41s-.27,1.26-.27,1.26l-.8,3.82s0,.07,0,.1c0,.21,.06,.37,.2,.49,.13,.12,.33,.17,.61,.17,.17,0,.35-.03,.52-.08,.03,0,.33-.13,.33-.14Zm-.37-6.82c.19-.21,.28-.49,.28-.83,0-.3-.09-.49-.28-.6s-.41-.16-.66-.16-.45,.04-.62,.12c-.18,.08-.31,.2-.4,.38s-.14,.38-.14,.62c0,.29,.1,.48,.28,.6s.41,.18,.68,.18c.39,0,.67-.1,.86-.32Z" />
    <path class="cls-green" d="M127.28,88.28c-.36-.01-.72-.09-1.05-.23-.39-.17-.77-.48-.93-.88-.1-.26-.13-.54-.11-.82,.03-.42,.13-.82,.23-1.23s.19-.83,.29-1.24l.32-1.41s0-.04,.01-.06h-1.45l.33-1.45h1.44l.43-1.89,1.98-.95-.64,2.84h1.89l-.28,1.45h-1.92c-.07,.31-.14,.62-.21,.92l-.36,1.59c-.09,.4-.21,.84-.24,1.24-.02,.22-.03,.43,.15,.58,.17,.13,.4,.16,.61,.16,.18,0,.37-.03,.54-.09,.03-.01,.35-.13,.35-.14,0,0-.28,1.45-.28,1.45,0,.04-.24,.07-.27,.07-.19,.04-.38,.06-.58,.07-.08,0-.16,0-.24,0Z" />
    <path class="cls-green" d="M115.98,88.01l1.58-7h1.52l-.14,1.3h.06c.19-.28,.4-.53,.63-.74s.48-.38,.77-.5c.28-.12,.6-.18,.95-.18,.42,0,.78,.08,1.07,.25s.5,.4,.64,.7c.14,.3,.21,.66,.21,1.07,0,.15-.01,.33-.04,.52-.03,.19-.06,.39-.12,.61l-.88,3.99h-2l.91-4.09c.03-.14,.06-.28,.08-.4,.02-.12,.02-.24,.02-.34,0-.26-.06-.46-.18-.58s-.29-.19-.54-.19c-.3,0-.58,.12-.82,.37-.24,.24-.45,.57-.63,.98s-.33,.86-.44,1.36l-.65,2.9h-2l-.02-.03Z" />
    <path class="cls-green" d="M112.21,88.15c-.62,0-1.16-.1-1.63-.31-.46-.2-.82-.51-1.08-.91s-.38-.89-.38-1.47,.1-1.14,.29-1.68c.19-.55,.48-1.04,.85-1.48,.37-.44,.83-.79,1.36-1.05,.54-.26,1.14-.39,1.82-.39,.83,0,1.46,.16,1.88,.49s.63,.76,.63,1.29c0,.36-.09,.69-.29,.99-.19,.3-.48,.56-.87,.78-.39,.22-.88,.39-1.48,.5-.59,.12-1.29,.18-2.1,.18h-.33c0,.06-.01,.13-.01,.19,0,.06,0,.13,0,.19,0,.47,.14,.84,.43,1.11s.7,.4,1.24,.4c.41,0,.79-.05,1.14-.13,.35-.09,.74-.22,1.17-.4l-.25,1.17c-.3,.12-.58,.28-.9,.36-.43,.12-.87,.15-1.31,.16-.06,0-.12,0-.18,0Zm-1.11-4.13h.25c.6,0,1.12-.05,1.56-.15,.44-.1,.78-.25,1.02-.45,.24-.2,.36-.43,.36-.71,0-.22-.08-.39-.24-.52s-.4-.19-.71-.19-.61,.08-.91,.25c-.3,.16-.57,.4-.8,.7-.23,.3-.41,.66-.53,1.07h0Z" />
    <path class="cls-green" d="M108.25,86.57s-.27,1.38-.27,1.38c0,.02-.68,.17-1.1,.15-.4-.02-.81-.05-1.19-.2-.13-.05-.25-.11-.37-.18-.4-.25-.6-.7-.6-1.33,0-.12,0-.26,.03-.41,.02-.15,.05-.31,.08-.47l.94-4.56h0s.5,0,.5,0h1.41s-.27,1.26-.27,1.26l-.8,3.82s0,.07,0,.1c0,.21,.06,.37,.2,.49,.13,.12,.33,.17,.61,.17,.17,0,.35-.03,.52-.08,.03,0,.33-.13,.33-.14Zm-.37-6.82c.19-.21,.28-.49,.28-.83,0-.3-.09-.49-.28-.6s-.41-.16-.66-.16-.45,.04-.62,.12c-.18,.08-.31,.2-.4,.38s-.14,.38-.14,.62c0,.29,.1,.48,.28,.6s.41,.18,.68,.18c.39,0,.67-.1,.86-.32Z" />
    <path class="cls-green" d="M101.02,88.13c-.52,0-.98-.09-1.4-.26s-.75-.45-1-.83c-.24-.38-.37-.87-.37-1.49,0-.5,.05-.99,.17-1.45s.27-.89,.49-1.28,.48-.73,.81-1.02,.68-.52,1.09-.68,.87-.24,1.38-.24c.44,0,.84,.04,1.2,.12s.68,.19,.99,.33l-.61,1.43c-.24-.1-.47-.18-.7-.25s-.49-.11-.79-.11c-.32,0-.6,.08-.84,.26-.24,.17-.45,.4-.62,.69-.17,.29-.31,.61-.39,.97s-.14,.72-.14,1.09c0,.26,.04,.48,.14,.66s.22,.32,.39,.41c.17,.09,.38,.14,.61,.14,.34,0,.65-.05,.94-.15s.59-.22,.89-.37v1.54c-.32,.15-.64,.28-1.01,.36-.36,.09-.77,.13-1.23,.13h0Z" />
    <path class="cls-green" d="M92.96,88.13c-.5,0-.98-.05-1.39-.15-.43-.1-.78-.24-1.08-.41v-1.71c.42,.21,.83,.38,1.24,.5,.41,.12,.82,.18,1.25,.18,.23,0,.45-.02,.66-.06,.2-.04,.37-.1,.53-.18,.14-.08,.26-.19,.35-.31,.09-.12,.12-.27,.12-.44,0-.24-.05-.44-.15-.6-.11-.16-.25-.31-.43-.45-.19-.14-.4-.29-.64-.44-.29-.18-.56-.39-.82-.63-.26-.23-.48-.51-.66-.82-.18-.31-.25-.67-.25-1.09s.09-.78,.24-1.12c.16-.34,.4-.63,.7-.88s.67-.44,1.1-.58,.91-.2,1.44-.2,1.01,.05,1.46,.15,.88,.26,1.31,.47l-.76,1.46c-.36-.15-.7-.27-1.03-.35s-.65-.12-.97-.12c-.19,0-.36,.02-.53,.07s-.3,.12-.42,.21-.21,.2-.27,.32-.1,.27-.1,.43c0,.22,.05,.4,.15,.56,.1,.15,.24,.3,.43,.43s.42,.28,.68,.43c.37,.22,.68,.46,.93,.71,.25,.25,.43,.53,.56,.82,.12,.3,.19,.62,.19,.98,0,.48-.1,.9-.3,1.25s-.47,.65-.82,.88-.76,.41-1.22,.52c-.46,.11-.95,.17-1.47,.17h-.03Z" />
  </g>
</svg>