<svg xmlns="http://www.w3.org/2000/svg" viewBox="0 0 147.04 100.58"><defs><style>.cls-1{fill:#004785;}.cls-2{fill:#005941;}</style></defs><g id="Layer_2" data-name="Layer 2"><g id="Layer_1-2" data-name="Layer 1"><path class="cls-1" d="M33.36,4.09l-.19,25.36c0,10.54-6.26,14.63-14.69,14.63C11.22,44.08,2,40.86,2,29.88V4.09A3.16,3.16,0,0,0,0,1.3H11.9A3.11,3.11,0,0,0,10,4.09v26c0,4.34,1.49,10.48,9.55,10.48,7.38,0,10-4.84,10-11L29.45,4.09A3,3,0,0,0,27.78,1.3H35A3,3,0,0,0,33.36,4.09Z"/><path class="cls-1" d="M50.15,44.08a26.37,26.37,0,0,1-11.9-3l-.31-10.48c1.18,4.4,4.9,10.23,11.35,10.23,6.13,0,8-4.4,8-7.44,0-6-5.39-6.76-11-9.8s-8.19-6.51-8.19-11.22C38.06,4,45.94.62,51.58.62a19.92,19.92,0,0,1,9.36,2.29l.31,9.18c-.87-3.29-4.4-8.25-10.35-8.25-4.72,0-6.58,3.29-6.58,6,0,3.78,2.67,5.2,8.5,7.87S64.6,22.44,64.6,31.06C64.6,38.81,57.78,44.08,50.15,44.08Z"/><path class="cls-1" d="M84.62,43.46H68.69a3.08,3.08,0,0,0,1.61-2.79V4.09A3,3,0,0,0,68.69,1.3H85.18c20.4,0,24.49,14.45,24.49,20.46C109.67,32.55,101.36,43.46,84.62,43.46ZM83.88,4.4c-1.49,0-4.78,0-5.71.13V40.24h5c14,0,17.92-9.43,17.92-18.48C101.05,14.32,96.71,4.4,83.88,4.4Z"/><path class="cls-1" d="M133.77,43.46c1.62-.87,1.93-1.73,1.49-3-.18-.62-1.8-4.4-3.53-8.61H116.54a89.58,89.58,0,0,0-3.47,8.55c-.56,1.49-.25,2.36,1.42,3.1h-8.55a7.38,7.38,0,0,0,2.91-3C110,38.07,126.33,0,126.33,0s16.5,38.07,17.61,40.42a5.45,5.45,0,0,0,3.1,3ZM124,13.39s-4.22,10.54-6.2,15.19H130.3C127.39,21.7,124,13.39,124,13.39Z"/><path class="cls-2" d="M145.18,49.42S55,47.18,1.52,75.65c0,0,56.63-22.39,143.66-20.15Z"/><path class="cls-2" d="M1.52,49.42s30.4.32,49.27,7.36c0,0-38.71-3.2-49.27-1.6Z"/><path class="cls-2" d="M1.52,59.34s21.76-1,34.88.32c0,0-31.68,3.84-34.88,5.44Z"/><path class="cls-2" d="M130.23,60.32h-.47C103.53,60.83,48.51,64,1.54,80.59v20l143.66,0V60.32S139.62,60.15,130.23,60.32Z"/></g></g></svg>